<?xml version="1.0" encoding="utf-8" standalone="no"?>
<!DOCTYPE svg PUBLIC "-//W3C//DTD SVG 1.1//EN"
  "http://www.w3.org/Graphics/SVG/1.1/DTD/svg11.dtd">
<!-- Created with matplotlib (http://matplotlib.org/) -->
<svg height="648pt" version="1.1" viewBox="0 0 720 648" width="720pt" xmlns="http://www.w3.org/2000/svg" xmlns:xlink="http://www.w3.org/1999/xlink">
 <defs>
  <style type="text/css">
*{stroke-linecap:butt;stroke-linejoin:round;}
  </style>
 </defs>
 <g id="figure_1">
  <g id="patch_1">
   <path d="
M0 648
L720 648
L720 0
L0 0
z
" style="fill:#ffffff;"/>
  </g>
  <g id="axes_1">
   <g id="patch_2">
    <path d="
M90 567
L648 567
L648 64.8
L90 64.8
z
" style="fill:#ffffff;"/>
   </g>
   <g id="matplotlib.axis_1">
    <g id="xtick_1">
     <g id="line2d_1">
      <defs>
       <path d="
M0 0
L0 6" id="m44d4eda7dc" style="stroke:#262626;"/>
      </defs>
      <g>
       <use style="fill:#262626;stroke:#262626;" x="136.5" xlink:href="#m44d4eda7dc" y="567.0"/>
      </g>
     </g>
     <g id="line2d_2">
      <defs>
       <path d="
M0 0
L0 -6" id="m6214b81e1c" style="stroke:#262626;"/>
      </defs>
      <g>
       <use style="fill:#262626;stroke:#262626;" x="136.5" xlink:href="#m6214b81e1c" y="64.8"/>
      </g>
     </g>
     <g id="text_1">
      <!-- 2004 -->
      <defs>
       <path d="
M43.0156 15.5781
L43.0156 0
L34.7188 0
L34.7188 15.5781
L2.29688 15.5781
L2.29688 22.4062
L33.7969 68.7969
L43.0156 68.7969
L43.0156 22.5156
L52.6875 22.5156
L52.6875 15.5781
z

M34.7188 58.8906
Q34.625 58.6406 34.2344 57.9375
Q33.8438 57.2344 33.3438 56.3438
Q32.8594 55.4688 32.3438 54.5625
Q31.8438 53.6562 31.4531 53.0781
L13.8125 27.0938
Q13.5781 26.7031 13.1094 26.0625
Q12.6406 25.4375 12.1562 24.7812
Q11.6719 24.125 11.1719 23.4844
Q10.6875 22.8594 10.4062 22.5156
L34.7188 22.5156
z
" id="LiberationSans-34"/>
       <path d="
M5.03125 0
L5.03125 6.20312
Q7.51562 11.9219 11.1094 16.2812
Q14.7031 20.6562 18.6562 24.1875
Q22.6094 27.7344 26.4844 30.7656
Q30.375 33.7969 33.5 36.8125
Q36.625 39.8438 38.5469 43.1562
Q40.4844 46.4844 40.4844 50.6875
Q40.4844 53.6094 39.5938 55.8281
Q38.7188 58.0625 37.0625 59.5625
Q35.4062 61.0781 33.0781 61.8281
Q30.7656 62.5938 27.9375 62.5938
Q25.2969 62.5938 22.9688 61.8594
Q20.6562 61.1406 18.8438 59.6719
Q17.0469 58.2031 15.8906 56.0312
Q14.75 53.8594 14.4062 50.9844
L5.42188 51.8125
Q5.85938 55.5156 7.46875 58.7812
Q9.07812 62.0625 11.9062 64.5312
Q14.75 67 18.7188 68.4062
Q22.7031 69.8281 27.9375 69.8281
Q33.0625 69.8281 37.0625 68.6094
Q41.0625 67.3906 43.8125 64.9844
Q46.5781 62.5938 48.0469 59.0781
Q49.5156 55.5625 49.5156 50.9844
Q49.5156 47.5156 48.2656 44.3906
Q47.0156 41.2656 44.9375 38.4219
Q42.875 35.5938 40.1406 32.9531
Q37.4062 30.3281 34.4219 27.8125
Q31.4531 25.2969 28.4219 22.8281
Q25.3906 20.3594 22.7188 17.8594
Q20.0625 15.375 17.9688 12.8125
Q15.875 10.25 14.7031 7.46875
L50.5938 7.46875
L50.5938 0
z
" id="LiberationSans-32"/>
       <path d="
M51.7031 34.4219
Q51.7031 24.5156 49.8281 17.75
Q47.9531 10.9844 44.7031 6.8125
Q41.4531 2.64062 37.0625 0.828125
Q32.6719 -0.984375 27.6875 -0.984375
Q22.6562 -0.984375 18.3125 0.828125
Q13.9688 2.64062 10.7656 6.78125
Q7.5625 10.9375 5.73438 17.7031
Q3.90625 24.4688 3.90625 34.4219
Q3.90625 44.8281 5.73438 51.6406
Q7.5625 58.4531 10.7812 62.5
Q14.0156 66.5469 18.4062 68.1875
Q22.7969 69.8281 27.9844 69.8281
Q32.9062 69.8281 37.2188 68.1875
Q41.5469 66.5469 44.7656 62.5
Q48 58.4531 49.8438 51.6406
Q51.7031 44.8281 51.7031 34.4219
M42.7812 34.4219
Q42.7812 42.625 41.7969 48.0625
Q40.8281 53.5156 38.9219 56.7656
Q37.0156 60.0156 34.25 61.3594
Q31.5 62.7031 27.9844 62.7031
Q24.2656 62.7031 21.4375 61.3281
Q18.6094 59.9688 16.6719 56.7188
Q14.75 53.4688 13.7656 48.0156
Q12.7969 42.5781 12.7969 34.4219
Q12.7969 26.5156 13.7969 21.0938
Q14.7969 15.6719 16.7188 12.375
Q18.6562 9.07812 21.4375 7.64062
Q24.2188 6.20312 27.7812 6.20312
Q31.25 6.20312 34.0312 7.64062
Q36.8125 9.07812 38.7344 12.375
Q40.6719 15.6719 41.7188 21.0938
Q42.7812 26.5156 42.7812 34.4219" id="LiberationSans-30"/>
      </defs>
      <g style="fill:#262626;" transform="translate(122.558515625 589.4209375)scale(0.13 -0.13)">
       <use xlink:href="#LiberationSans-32"/>
       <use x="55.615234375" xlink:href="#LiberationSans-30"/>
       <use x="111.23046875" xlink:href="#LiberationSans-30"/>
       <use x="166.845703125" xlink:href="#LiberationSans-34"/>
      </g>
     </g>
    </g>
    <g id="xtick_2">
     <g id="line2d_3">
      <g>
       <use style="fill:#262626;stroke:#262626;" x="229.5" xlink:href="#m44d4eda7dc" y="567.0"/>
      </g>
     </g>
     <g id="line2d_4">
      <g>
       <use style="fill:#262626;stroke:#262626;" x="229.5" xlink:href="#m6214b81e1c" y="64.8"/>
      </g>
     </g>
     <g id="text_2">
      <!-- 2006 -->
      <defs>
       <path d="
M51.2188 22.5156
Q51.2188 17.3281 49.7812 13
Q48.3438 8.6875 45.5312 5.57812
Q42.7188 2.48438 38.5625 0.75
Q34.4219 -0.984375 29 -0.984375
Q23 -0.984375 18.5 1.3125
Q14.0156 3.60938 11.0312 7.92188
Q8.0625 12.25 6.5625 18.5312
Q5.07812 24.8125 5.07812 32.8125
Q5.07812 42 6.76562 48.9219
Q8.45312 55.8594 11.625 60.5
Q14.7969 65.1406 19.3594 67.4844
Q23.9219 69.8281 29.6875 69.8281
Q33.2031 69.8281 36.2812 69.0938
Q39.3594 68.3594 41.875 66.7188
Q44.3906 65.0938 46.2812 62.4062
Q48.1875 59.7188 49.3125 55.8125
L40.9219 54.2969
Q39.5469 58.7344 36.5469 60.7188
Q33.5469 62.7031 29.5938 62.7031
Q25.9844 62.7031 23.0469 60.9844
Q20.125 59.2812 18.0625 55.875
Q16.0156 52.4844 14.9062 47.3594
Q13.8125 42.2344 13.8125 35.4062
Q16.2188 39.8438 20.5625 42.1562
Q24.9062 44.4844 30.5156 44.4844
Q35.2031 44.4844 39.0156 42.9688
Q42.8281 41.4531 45.5312 38.5938
Q48.25 35.75 49.7344 31.6719
Q51.2188 27.5938 51.2188 22.5156
M42.2812 22.125
Q42.2812 25.6875 41.4062 28.5625
Q40.5312 31.4531 38.7656 33.4688
Q37.0156 35.5 34.4219 36.5938
Q31.8438 37.7031 28.4219 37.7031
Q26.0312 37.7031 23.5781 36.9844
Q21.1406 36.2812 19.1562 34.6875
Q17.1875 33.1094 15.9375 30.5156
Q14.7031 27.9375 14.7031 24.2188
Q14.7031 20.4062 15.6719 17.1094
Q16.6562 13.8125 18.4844 11.375
Q20.3125 8.9375 22.8906 7.51562
Q25.4844 6.10938 28.7188 6.10938
Q31.8906 6.10938 34.4062 7.20312
Q36.9219 8.29688 38.6719 10.375
Q40.4375 12.4531 41.3594 15.4219
Q42.2812 18.4062 42.2812 22.125" id="LiberationSans-36"/>
      </defs>
      <g style="fill:#262626;" transform="translate(215.653984375 589.4209375)scale(0.13 -0.13)">
       <use xlink:href="#LiberationSans-32"/>
       <use x="55.615234375" xlink:href="#LiberationSans-30"/>
       <use x="111.23046875" xlink:href="#LiberationSans-30"/>
       <use x="166.845703125" xlink:href="#LiberationSans-36"/>
      </g>
     </g>
    </g>
    <g id="xtick_3">
     <g id="line2d_5">
      <g>
       <use style="fill:#262626;stroke:#262626;" x="322.5" xlink:href="#m44d4eda7dc" y="567.0"/>
      </g>
     </g>
     <g id="line2d_6">
      <g>
       <use style="fill:#262626;stroke:#262626;" x="322.5" xlink:href="#m6214b81e1c" y="64.8"/>
      </g>
     </g>
     <g id="text_3">
      <!-- 2008 -->
      <defs>
       <path d="
M51.2656 19.1875
Q51.2656 14.7969 49.875 11.1094
Q48.4844 7.42188 45.625 4.73438
Q42.7812 2.04688 38.3281 0.53125
Q33.8906 -0.984375 27.8281 -0.984375
Q21.7812 -0.984375 17.3594 0.53125
Q12.9375 2.04688 10.0312 4.70312
Q7.125 7.375 5.73438 11.0625
Q4.34375 14.75 4.34375 19.0938
Q4.34375 22.8594 5.48438 25.7812
Q6.64062 28.7188 8.5625 30.8281
Q10.5 32.9531 12.9688 34.25
Q15.4375 35.5469 18.0625 35.9844
L18.0625 36.1875
Q15.1875 36.8594 12.9062 38.375
Q10.6406 39.8906 9.09375 42.0156
Q7.5625 44.1406 6.75 46.7188
Q5.95312 49.3125 5.95312 52.2031
Q5.95312 55.8125 7.34375 59
Q8.73438 62.2031 11.4688 64.625
Q14.2031 67.0469 18.25 68.4375
Q22.3125 69.8281 27.6406 69.8281
Q33.25 69.8281 37.375 68.4062
Q41.5 67 44.2031 64.5781
Q46.9219 62.1562 48.2344 58.9375
Q49.5625 55.7188 49.5625 52.0938
Q49.5625 49.2656 48.75 46.6719
Q47.9531 44.0938 46.4062 41.9688
Q44.875 39.8438 42.5938 38.3438
Q40.3281 36.8594 37.3594 36.2812
L37.3594 36.0781
Q40.3281 35.5938 42.8594 34.2969
Q45.4062 33.0156 47.2656 30.8906
Q49.125 28.7656 50.1875 25.8281
Q51.2656 22.9062 51.2656 19.1875
M40.4375 51.6094
Q40.4375 54.2031 39.7656 56.3438
Q39.1094 58.5 37.5938 60.0312
Q36.0781 61.5781 33.6406 62.4219
Q31.2031 63.2812 27.6406 63.2812
Q24.1719 63.2812 21.7812 62.4219
Q19.3906 61.5781 17.8438 60.0312
Q16.3125 58.5 15.625 56.3438
Q14.9375 54.2031 14.9375 51.6094
Q14.9375 49.5625 15.4688 47.4062
Q16.0156 45.2656 17.4219 43.5
Q18.8438 41.75 21.3281 40.625
Q23.8281 39.5 27.7344 39.5
Q31.8906 39.5 34.4062 40.625
Q36.9219 41.75 38.25 43.5
Q39.5938 45.2656 40.0156 47.4062
Q40.4375 49.5625 40.4375 51.6094
M42.1406 20.0156
Q42.1406 22.5156 41.4531 24.8281
Q40.7656 27.1562 39.1094 28.9375
Q37.4531 30.7188 34.6406 31.8125
Q31.8438 32.9062 27.6406 32.9062
Q23.7812 32.9062 21.0625 31.8125
Q18.3594 30.7188 16.6719 28.9062
Q14.9844 27.0938 14.2031 24.7188
Q13.4219 22.3594 13.4219 19.8281
Q13.4219 16.6562 14.2031 14.0312
Q14.9844 11.4219 16.6875 9.54688
Q18.4062 7.67188 21.1875 6.64062
Q23.9688 5.60938 27.9375 5.60938
Q31.9375 5.60938 34.6719 6.64062
Q37.4062 7.67188 39.0625 9.54688
Q40.7188 11.4219 41.4219 14.0781
Q42.1406 16.75 42.1406 20.0156" id="LiberationSans-38"/>
      </defs>
      <g style="fill:#262626;" transform="translate(308.6509375 589.4209375)scale(0.13 -0.13)">
       <use xlink:href="#LiberationSans-32"/>
       <use x="55.615234375" xlink:href="#LiberationSans-30"/>
       <use x="111.23046875" xlink:href="#LiberationSans-30"/>
       <use x="166.845703125" xlink:href="#LiberationSans-38"/>
      </g>
     </g>
    </g>
    <g id="xtick_4">
     <g id="line2d_7">
      <g>
       <use style="fill:#262626;stroke:#262626;" x="415.5" xlink:href="#m44d4eda7dc" y="567.0"/>
      </g>
     </g>
     <g id="line2d_8">
      <g>
       <use style="fill:#262626;stroke:#262626;" x="415.5" xlink:href="#m6214b81e1c" y="64.8"/>
      </g>
     </g>
     <g id="text_4">
      <!-- 2010 -->
      <defs>
       <path d="
M7.625 0
L7.625 7.46875
L25.1406 7.46875
L25.1406 60.4062
L9.625 49.3125
L9.625 57.625
L25.875 68.7969
L33.9844 68.7969
L33.9844 7.46875
L50.7344 7.46875
L50.7344 0
z
" id="LiberationSans-31"/>
      </defs>
      <g style="fill:#262626;" transform="translate(401.6225 589.4209375)scale(0.13 -0.13)">
       <use xlink:href="#LiberationSans-32"/>
       <use x="55.615234375" xlink:href="#LiberationSans-30"/>
       <use x="111.23046875" xlink:href="#LiberationSans-31"/>
       <use x="166.845703125" xlink:href="#LiberationSans-30"/>
      </g>
     </g>
    </g>
    <g id="xtick_5">
     <g id="line2d_9">
      <g>
       <use style="fill:#262626;stroke:#262626;" x="508.5" xlink:href="#m44d4eda7dc" y="567.0"/>
      </g>
     </g>
     <g id="line2d_10">
      <g>
       <use style="fill:#262626;stroke:#262626;" x="508.5" xlink:href="#m6214b81e1c" y="64.8"/>
      </g>
     </g>
     <g id="text_5">
      <!-- 2012 -->
      <g style="fill:#262626;" transform="translate(494.694609375 589.4209375)scale(0.13 -0.13)">
       <use xlink:href="#LiberationSans-32"/>
       <use x="55.615234375" xlink:href="#LiberationSans-30"/>
       <use x="111.23046875" xlink:href="#LiberationSans-31"/>
       <use x="166.845703125" xlink:href="#LiberationSans-32"/>
      </g>
     </g>
    </g>
    <g id="xtick_6">
     <g id="line2d_11">
      <g>
       <use style="fill:#262626;stroke:#262626;" x="601.5" xlink:href="#m44d4eda7dc" y="567.0"/>
      </g>
     </g>
     <g id="line2d_12">
      <g>
       <use style="fill:#262626;stroke:#262626;" x="601.5" xlink:href="#m6214b81e1c" y="64.8"/>
      </g>
     </g>
     <g id="text_6">
      <!-- 2014 -->
      <g style="fill:#262626;" transform="translate(587.558515625 589.4209375)scale(0.13 -0.13)">
       <use xlink:href="#LiberationSans-32"/>
       <use x="55.615234375" xlink:href="#LiberationSans-30"/>
       <use x="111.23046875" xlink:href="#LiberationSans-31"/>
       <use x="166.845703125" xlink:href="#LiberationSans-34"/>
      </g>
     </g>
    </g>
    <g id="text_7">
     <!-- year -->
     <defs>
      <path d="
M13.4844 24.5625
Q13.4844 20.4062 14.3281 16.9062
Q15.1875 13.4219 16.9688 10.9062
Q18.75 8.40625 21.5312 7
Q24.3125 5.60938 28.2188 5.60938
Q33.9375 5.60938 37.375 7.90625
Q40.8281 10.2031 42.0469 13.7188
L49.75 11.5312
Q48.9219 9.32812 47.4375 7.10938
Q45.9531 4.89062 43.4531 3.09375
Q40.9688 1.3125 37.2344 0.15625
Q33.5 -0.984375 28.2188 -0.984375
Q16.5 -0.984375 10.375 6
Q4.25 12.9844 4.25 26.7656
Q4.25 34.1875 6.09375 39.3281
Q7.95312 44.4844 11.1719 47.7031
Q14.4062 50.9219 18.7031 52.3594
Q23 53.8125 27.875 53.8125
Q34.5156 53.8125 38.9844 51.6562
Q43.4531 49.5156 46.1562 45.7188
Q48.875 41.9375 50.0156 36.8125
Q51.1719 31.6875 51.1719 25.7344
L51.1719 24.5625
z

M42.0938 31.2969
Q41.3594 39.6562 37.8438 43.4844
Q34.3281 47.3125 27.7344 47.3125
Q25.5312 47.3125 23.1094 46.6094
Q20.7031 45.9062 18.6562 44.0938
Q16.6094 42.2812 15.1875 39.1719
Q13.7656 36.0781 13.5781 31.2969
z
" id="LiberationSans-65"/>
      <path d="
M29.5 0
Q27.6406 -4.78125 25.7031 -8.60938
Q23.7812 -12.4531 21.3906 -15.1562
Q19 -17.875 16.0625 -19.3125
Q13.1406 -20.75 9.32812 -20.75
Q7.67188 -20.75 6.25 -20.6562
Q4.82812 -20.5625 3.26562 -20.2188
L3.26562 -13.625
Q4.20312 -13.7656 5.375 -13.8438
Q6.54688 -13.9219 7.375 -13.9219
Q11.2344 -13.9219 14.5469 -11.0312
Q17.875 -8.15625 20.3594 -1.85938
L21.1875 0.25
L0.25 52.8281
L9.625 52.8281
L20.75 23.6406
Q21.2344 22.3125 21.9844 20.1094
Q22.75 17.9219 23.5 15.7188
Q24.2656 13.5312 24.8438 11.7656
Q25.4375 10.0156 25.5312 9.57812
Q25.6875 10.1094 26.25 11.6875
Q26.8125 13.2812 27.5156 15.2344
Q28.2188 17.1875 28.9531 19.1875
Q29.6875 21.1875 30.1719 22.6562
L40.5312 52.8281
L49.8125 52.8281
z
" id="LiberationSans-79"/>
      <path d="
M20.2188 -0.984375
Q12.25 -0.984375 8.25 3.21875
Q4.25 7.42188 4.25 14.75
Q4.25 19.9688 6.21875 23.3125
Q8.20312 26.6562 11.3906 28.5625
Q14.5938 30.4688 18.6875 31.2031
Q22.7969 31.9375 27.0469 32.0312
L38.9219 32.2344
L38.9219 35.1094
Q38.9219 38.375 38.2344 40.6719
Q37.5469 42.9688 36.125 44.375
Q34.7188 45.7969 32.5938 46.4531
Q30.4688 47.125 27.5938 47.125
Q25.0469 47.125 23 46.75
Q20.9531 46.3906 19.4375 45.4375
Q17.9219 44.4844 16.9844 42.8438
Q16.0625 41.2188 15.7656 38.7188
L6.59375 39.5469
Q7.07812 42.6719 8.4375 45.2812
Q9.8125 47.9062 12.3281 49.7969
Q14.8438 51.7031 18.625 52.75
Q22.4062 53.8125 27.7812 53.8125
Q37.75 53.8125 42.7656 49.2344
Q47.7969 44.6719 47.7969 36.0312
L47.7969 13.2812
Q47.7969 9.375 48.8281 7.39062
Q49.8594 5.42188 52.7344 5.42188
Q53.4688 5.42188 54.2031 5.51562
Q54.9375 5.60938 55.6094 5.76562
L55.6094 0.296875
Q53.9531 -0.09375 52.3125 -0.28125
Q50.6875 -0.484375 48.8281 -0.484375
Q46.3438 -0.484375 44.5625 0.171875
Q42.7812 0.828125 41.6562 2.17188
Q40.5312 3.51562 39.9375 5.48438
Q39.3594 7.46875 39.2031 10.1094
L38.9219 10.1094
Q37.5 7.5625 35.8125 5.51562
Q34.125 3.46875 31.875 2.03125
Q29.6406 0.59375 26.7812 -0.1875
Q23.9219 -0.984375 20.2188 -0.984375
M22.2188 5.60938
Q26.4219 5.60938 29.5625 7.14062
Q32.7188 8.6875 34.7812 11.0781
Q36.8594 13.4844 37.8906 16.3125
Q38.9219 19.1406 38.9219 21.7344
L38.9219 26.0781
L29.2969 25.875
Q26.0781 25.8281 23.1719 25.4062
Q20.2656 25 18.0625 23.7812
Q15.875 22.5625 14.5781 20.3594
Q13.2812 18.1719 13.2812 14.5938
Q13.2812 10.2969 15.5938 7.95312
Q17.9219 5.60938 22.2188 5.60938" id="LiberationSans-61"/>
      <path d="
M6.9375 0
L6.9375 40.5312
Q6.9375 42.1875 6.90625 43.9219
Q6.89062 45.6562 6.82812 47.2656
Q6.78125 48.875 6.73438 50.2812
Q6.6875 51.7031 6.64062 52.8281
L14.9375 52.8281
Q14.9844 51.7031 15.0625 50.2656
Q15.1406 48.8281 15.2031 47.3125
Q15.2812 45.7969 15.2969 44.4062
Q15.3281 43.0156 15.3281 42.0469
L15.5312 42.0469
Q16.4531 45.0625 17.5 47.2812
Q18.5625 49.5156 19.9688 50.9531
Q21.3906 52.3906 23.3438 53.0938
Q25.2969 53.8125 28.0781 53.8125
Q29.1562 53.8125 30.125 53.6406
Q31.1094 53.4688 31.6406 53.3281
L31.6406 45.2656
Q30.7656 45.5156 29.5938 45.625
Q28.4219 45.75 26.9531 45.75
Q23.9219 45.75 21.7969 44.375
Q19.6719 43.0156 18.3281 40.5938
Q17 38.1875 16.3594 34.8438
Q15.7188 31.5 15.7188 27.5469
L15.7188 0
z
" id="LiberationSans-72"/>
     </defs>
     <g style="fill:#262626;" transform="translate(354.554296875 607.98875)scale(0.15 -0.15)">
      <use xlink:href="#LiberationSans-79"/>
      <use x="50.0" xlink:href="#LiberationSans-65"/>
      <use x="105.615234375" xlink:href="#LiberationSans-61"/>
      <use x="161.23046875" xlink:href="#LiberationSans-72"/>
     </g>
    </g>
   </g>
   <g id="matplotlib.axis_2">
    <g id="ytick_1">
     <g id="line2d_13">
      <defs>
       <path d="
M0 0
L-6 0" id="m0dfa6ce036" style="stroke:#262626;"/>
      </defs>
      <g>
       <use style="fill:#262626;stroke:#262626;" x="90.0" xlink:href="#m0dfa6ce036" y="567.0"/>
      </g>
     </g>
     <g id="line2d_14">
      <defs>
       <path d="
M0 0
L6 0" id="m0afc27f78c" style="stroke:#262626;"/>
      </defs>
      <g>
       <use style="fill:#262626;stroke:#262626;" x="648.0" xlink:href="#m0afc27f78c" y="567.0"/>
      </g>
     </g>
     <g id="text_8">
      <!-- 0.0 -->
      <defs>
       <path d="
M9.125 0
L9.125 10.6875
L18.6562 10.6875
L18.6562 0
z
" id="LiberationSans-2e"/>
      </defs>
      <g style="fill:#262626;" transform="translate(59.945625 570.36171875)scale(0.13 -0.13)">
       <use xlink:href="#LiberationSans-30"/>
       <use x="55.615234375" xlink:href="#LiberationSans-2e"/>
       <use x="83.3984375" xlink:href="#LiberationSans-30"/>
      </g>
     </g>
    </g>
    <g id="ytick_2">
     <g id="line2d_15">
      <g>
       <use style="fill:#262626;stroke:#262626;" x="90.0" xlink:href="#m0dfa6ce036" y="466.56"/>
      </g>
     </g>
     <g id="line2d_16">
      <g>
       <use style="fill:#262626;stroke:#262626;" x="648.0" xlink:href="#m0afc27f78c" y="466.56"/>
      </g>
     </g>
     <g id="text_9">
      <!-- 0.2 -->
      <g style="fill:#262626;" transform="translate(60.08984375 469.92171875)scale(0.13 -0.13)">
       <use xlink:href="#LiberationSans-30"/>
       <use x="55.615234375" xlink:href="#LiberationSans-2e"/>
       <use x="83.3984375" xlink:href="#LiberationSans-32"/>
      </g>
     </g>
    </g>
    <g id="ytick_3">
     <g id="line2d_17">
      <g>
       <use style="fill:#262626;stroke:#262626;" x="90.0" xlink:href="#m0dfa6ce036" y="366.12"/>
      </g>
     </g>
     <g id="line2d_18">
      <g>
       <use style="fill:#262626;stroke:#262626;" x="648.0" xlink:href="#m0afc27f78c" y="366.12"/>
      </g>
     </g>
     <g id="text_10">
      <!-- 0.4 -->
      <g style="fill:#262626;" transform="translate(59.81765625 369.48171875)scale(0.13 -0.13)">
       <use xlink:href="#LiberationSans-30"/>
       <use x="55.615234375" xlink:href="#LiberationSans-2e"/>
       <use x="83.3984375" xlink:href="#LiberationSans-34"/>
      </g>
     </g>
    </g>
    <g id="ytick_4">
     <g id="line2d_19">
      <g>
       <use style="fill:#262626;stroke:#262626;" x="90.0" xlink:href="#m0dfa6ce036" y="265.68"/>
      </g>
     </g>
     <g id="line2d_20">
      <g>
       <use style="fill:#262626;stroke:#262626;" x="648.0" xlink:href="#m0afc27f78c" y="265.68"/>
      </g>
     </g>
     <g id="text_11">
      <!-- 0.6 -->
      <g style="fill:#262626;" transform="translate(60.00859375 269.04171875)scale(0.13 -0.13)">
       <use xlink:href="#LiberationSans-30"/>
       <use x="55.615234375" xlink:href="#LiberationSans-2e"/>
       <use x="83.3984375" xlink:href="#LiberationSans-36"/>
      </g>
     </g>
    </g>
    <g id="ytick_5">
     <g id="line2d_21">
      <g>
       <use style="fill:#262626;stroke:#262626;" x="90.0" xlink:href="#m0dfa6ce036" y="165.24"/>
      </g>
     </g>
     <g id="line2d_22">
      <g>
       <use style="fill:#262626;stroke:#262626;" x="648.0" xlink:href="#m0afc27f78c" y="165.24"/>
      </g>
     </g>
     <g id="text_12">
      <!-- 0.8 -->
      <g style="fill:#262626;" transform="translate(60.0025 168.60171875)scale(0.13 -0.13)">
       <use xlink:href="#LiberationSans-30"/>
       <use x="55.615234375" xlink:href="#LiberationSans-2e"/>
       <use x="83.3984375" xlink:href="#LiberationSans-38"/>
      </g>
     </g>
    </g>
    <g id="ytick_6">
     <g id="line2d_23">
      <g>
       <use style="fill:#262626;stroke:#262626;" x="90.0" xlink:href="#m0dfa6ce036" y="64.8"/>
      </g>
     </g>
     <g id="line2d_24">
      <g>
       <use style="fill:#262626;stroke:#262626;" x="648.0" xlink:href="#m0afc27f78c" y="64.8"/>
      </g>
     </g>
     <g id="text_13">
      <!-- 1.0 -->
      <g style="fill:#262626;" transform="translate(60.4290625 68.16171875)scale(0.13 -0.13)">
       <use xlink:href="#LiberationSans-31"/>
       <use x="55.615234375" xlink:href="#LiberationSans-2e"/>
       <use x="83.3984375" xlink:href="#LiberationSans-30"/>
      </g>
     </g>
    </g>
    <g id="text_14">
     <!-- market breakdown -->
     <defs>
      <path d="
M40.0938 8.5
Q37.6406 3.42188 33.6094 1.21875
Q29.5938 -0.984375 23.6406 -0.984375
Q13.625 -0.984375 8.90625 5.75
Q4.20312 12.5 4.20312 26.1719
Q4.20312 53.8125 23.6406 53.8125
Q29.6406 53.8125 33.6406 51.6094
Q37.6406 49.4219 40.0938 44.625
L40.1875 44.625
Q40.1875 45.125 40.1562 46.1719
Q40.1406 47.2188 40.1094 48.3594
Q40.0938 49.5156 40.0938 50.5312
Q40.0938 51.5625 40.0938 52
L40.0938 72.4688
L48.875 72.4688
L48.875 10.8906
Q48.875 8.98438 48.8906 7.21875
Q48.9219 5.46875 48.9688 4
Q49.0312 2.54688 49.0781 1.48438
Q49.125 0.4375 49.1719 0
L40.7656 0
Q40.6719 0.484375 40.5938 1.39062
Q40.5312 2.29688 40.4531 3.46875
Q40.375 4.64062 40.3281 5.9375
Q40.2812 7.23438 40.2812 8.5
z

M13.4219 26.4688
Q13.4219 21 14.1094 17.0938
Q14.7969 13.1875 16.3125 10.6719
Q17.8281 8.15625 20.1719 6.98438
Q22.5156 5.8125 25.875 5.8125
Q29.3438 5.8125 32 6.9375
Q34.6719 8.0625 36.4531 10.5781
Q38.2344 13.0938 39.1562 17.1406
Q40.0938 21.1875 40.0938 27.0469
Q40.0938 32.6719 39.1562 36.5469
Q38.2344 40.4375 36.4219 42.8281
Q34.625 45.2188 32 46.2656
Q29.3906 47.3125 25.9844 47.3125
Q22.75 47.3125 20.4062 46.1875
Q18.0625 45.0625 16.5 42.5781
Q14.9375 40.0938 14.1719 36.1094
Q13.4219 32.125 13.4219 26.4688" id="LiberationSans-64"/>
      <path d="
M57.3281 0
L47.125 0
L38.6719 34.0781
Q38.2812 35.4062 37.8594 37.3594
Q37.4531 39.3125 37.0625 41.1562
Q36.5781 43.3125 36.1406 45.6094
Q35.6875 43.4062 35.2031 41.2656
Q34.8125 39.4062 34.3438 37.4062
Q33.8906 35.4062 33.5 33.8906
L24.8125 0
L14.6562 0
L-0.140625 52.8281
L8.54688 52.8281
L17.4844 16.9375
Q17.8281 15.8281 18.1562 14.1875
Q18.5 12.5469 18.8438 10.9844
Q19.1875 9.1875 19.5781 7.28125
Q19.9688 9.125 20.4062 10.8906
Q20.7969 12.4062 21.1875 13.9688
Q21.5781 15.5312 21.875 16.5469
L31.4531 52.8281
L40.875 52.8281
L50.0938 16.5469
Q50.4375 15.2812 50.8281 13.6719
Q51.2188 12.0625 51.5625 10.6406
Q51.9531 8.98438 52.3438 7.28125
Q52.7344 9.125 53.125 10.8906
Q53.4688 12.4062 53.8281 14.0312
Q54.2031 15.6719 54.5469 16.9375
L63.875 52.8281
L72.4688 52.8281
z
" id="LiberationSans-77"/>
      <path d="
M51.4219 26.6562
Q51.4219 -0.984375 31.9844 -0.984375
Q25.9844 -0.984375 22 1.1875
Q18.0156 3.375 15.5312 8.20312
L15.4375 8.20312
Q15.4375 6.9375 15.3594 5.5625
Q15.2812 4.20312 15.2031 3.03125
Q15.1406 1.85938 15.0625 1.03125
Q14.9844 0.203125 14.9375 0
L6.45312 0
Q6.5 0.4375 6.54688 1.48438
Q6.59375 2.54688 6.64062 4
Q6.6875 5.46875 6.70312 7.21875
Q6.73438 8.98438 6.73438 10.8906
L6.73438 72.4688
L15.5312 72.4688
L15.5312 51.8125
Q15.5312 50.3438 15.5 49
Q15.4844 47.6562 15.4375 46.625
Q15.375 45.4062 15.3281 44.3438
L15.5312 44.3438
Q17.9688 49.4219 22 51.6094
Q26.0312 53.8125 31.9844 53.8125
Q42 53.8125 46.7031 47.0625
Q51.4219 40.3281 51.4219 26.6562
M42.1875 26.375
Q42.1875 31.8438 41.5 35.75
Q40.8281 39.6562 39.3125 42.1562
Q37.7969 44.6719 35.4531 45.8438
Q33.1094 47.0156 29.7344 47.0156
Q26.2656 47.0156 23.6094 45.8906
Q20.9531 44.7812 19.1719 42.2812
Q17.3906 39.7969 16.4531 35.7344
Q15.5312 31.6875 15.5312 25.8281
Q15.5312 20.1719 16.4531 16.3125
Q17.3906 12.4531 19.1719 10.0312
Q20.9531 7.625 23.5781 6.5625
Q26.2188 5.51562 29.6406 5.51562
Q32.8594 5.51562 35.2031 6.64062
Q37.5469 7.76562 39.1094 10.25
Q40.6719 12.75 41.4219 16.7188
Q42.1875 20.7031 42.1875 26.375" id="LiberationSans-62"/>
      <path d="
M27.0469 0.390625
Q25.0469 -0.140625 22.9688 -0.453125
Q20.9062 -0.78125 18.1719 -0.78125
Q7.625 -0.78125 7.625 11.1875
L7.625 46.4375
L1.51562 46.4375
L1.51562 52.8281
L7.95312 52.8281
L10.5469 64.6562
L16.4062 64.6562
L16.4062 52.8281
L26.1719 52.8281
L26.1719 46.4375
L16.4062 46.4375
L16.4062 13.0938
Q16.4062 9.28125 17.6406 7.73438
Q18.8906 6.20312 21.9688 6.20312
Q23.25 6.20312 24.4375 6.39062
Q25.6406 6.59375 27.0469 6.89062
z
" id="LiberationSans-74"/>
      <path d="
M37.5 0
L37.5 33.5
Q37.5 37.3594 37.0156 39.9375
Q36.5312 42.5312 35.375 44.1094
Q34.2344 45.7031 32.375 46.3594
Q30.5156 47.0156 27.8281 47.0156
Q25.0469 47.0156 22.7969 45.9219
Q20.5625 44.8281 18.9688 42.75
Q17.3906 40.6719 16.5312 37.625
Q15.6719 34.5781 15.6719 30.6094
L15.6719 0
L6.9375 0
L6.9375 41.5469
Q6.9375 43.2188 6.90625 45.0469
Q6.89062 46.875 6.82812 48.5
Q6.78125 50.1406 6.73438 51.3125
Q6.6875 52.4844 6.64062 52.8281
L14.9375 52.8281
Q14.9844 52.5938 15.0312 51.5156
Q15.0938 50.4375 15.1562 49.0469
Q15.2344 47.6562 15.2812 46.2188
Q15.3281 44.7812 15.3281 43.7969
L15.4844 43.7969
Q16.6562 46.0938 18.0156 47.9531
Q19.3906 49.8125 21.2188 51.0938
Q23.0469 52.3906 25.4062 53.0938
Q27.7812 53.8125 30.9062 53.8125
Q36.9219 53.8125 40.4062 51.4219
Q43.8906 49.0312 45.2656 43.7969
L45.4062 43.7969
Q46.5781 46.0938 48.0469 47.9531
Q49.5156 49.8125 51.4688 51.0938
Q53.4219 52.3906 55.8594 53.0938
Q58.2969 53.8125 61.4219 53.8125
Q65.4375 53.8125 68.3281 52.7344
Q71.2344 51.6562 73.0938 49.4062
Q74.9531 47.1719 75.8281 43.625
Q76.7031 40.0938 76.7031 35.2031
L76.7031 0
L68.0156 0
L68.0156 33.5
Q68.0156 37.3594 67.5312 39.9375
Q67.0469 42.5312 65.8906 44.1094
Q64.75 45.7031 62.8906 46.3594
Q61.0312 47.0156 58.3438 47.0156
Q55.5625 47.0156 53.3125 45.9688
Q51.0781 44.9219 49.4844 42.875
Q47.9062 40.8281 47.0469 37.75
Q46.1875 34.6719 46.1875 30.6094
L46.1875 0
z
" id="LiberationSans-6d"/>
      <path d="
M40.2812 0
L40.2812 33.5
Q40.2812 37.3594 39.7188 39.9375
Q39.1562 42.5312 37.8906 44.1094
Q36.625 45.7031 34.5469 46.3594
Q32.4688 47.0156 29.3906 47.0156
Q26.2656 47.0156 23.75 45.9219
Q21.2344 44.8281 19.4531 42.75
Q17.6719 40.6719 16.6875 37.625
Q15.7188 34.5781 15.7188 30.6094
L15.7188 0
L6.9375 0
L6.9375 41.5469
Q6.9375 43.2188 6.90625 45.0469
Q6.89062 46.875 6.82812 48.5
Q6.78125 50.1406 6.73438 51.3125
Q6.6875 52.4844 6.64062 52.8281
L14.9375 52.8281
Q14.9844 52.5938 15.0312 51.5156
Q15.0938 50.4375 15.1562 49.0469
Q15.2344 47.6562 15.2812 46.2188
Q15.3281 44.7812 15.3281 43.7969
L15.4844 43.7969
Q16.75 46.0938 18.2656 47.9531
Q19.7812 49.8125 21.7812 51.0938
Q23.7812 52.3906 26.3594 53.0938
Q28.9531 53.8125 32.375 53.8125
Q36.7656 53.8125 39.9375 52.7344
Q43.1094 51.6562 45.1562 49.4062
Q47.2188 47.1719 48.1719 43.625
Q49.125 40.0938 49.125 35.2031
L49.125 0
z
" id="LiberationSans-6e"/>
      <path d="
M51.4219 26.4688
Q51.4219 12.5938 45.3125 5.79688
Q39.2031 -0.984375 27.5938 -0.984375
Q22.0781 -0.984375 17.7188 0.671875
Q13.375 2.34375 10.375 5.76562
Q7.375 9.1875 5.78125 14.3281
Q4.20312 19.4844 4.20312 26.4688
Q4.20312 53.8125 27.875 53.8125
Q34.0312 53.8125 38.5 52.0938
Q42.9688 50.3906 45.8281 46.9688
Q48.6875 43.5625 50.0469 38.4219
Q51.4219 33.2969 51.4219 26.4688
M42.1875 26.4688
Q42.1875 32.625 41.2344 36.625
Q40.2812 40.625 38.4531 43.0156
Q36.625 45.4062 33.9844 46.3594
Q31.3438 47.3125 28.0312 47.3125
Q24.6562 47.3125 21.9375 46.3125
Q19.2344 45.3125 17.3281 42.8906
Q15.4375 40.4844 14.4219 36.4688
Q13.4219 32.4688 13.4219 26.4688
Q13.4219 20.3125 14.5 16.2812
Q15.5781 12.25 17.4531 9.85938
Q19.3438 7.46875 21.9062 6.48438
Q24.4688 5.51562 27.4844 5.51562
Q30.8594 5.51562 33.5938 6.46875
Q36.3281 7.42188 38.2344 9.8125
Q40.1406 12.2031 41.1562 16.25
Q42.1875 20.3125 42.1875 26.4688" id="LiberationSans-6f"/>
      <path d="
M39.8438 0
L21.9688 24.125
L15.5312 18.7969
L15.5312 0
L6.73438 0
L6.73438 72.4688
L15.5312 72.4688
L15.5312 27.2031
L38.7188 52.8281
L49.0312 52.8281
L27.5938 30.125
L50.1406 0
z
" id="LiberationSans-6b"/>
      <path id="LiberationSans-20"/>
     </defs>
     <g style="fill:#262626;" transform="translate(51.70515625 377.1046875)rotate(-90.0)scale(0.15 -0.15)">
      <use xlink:href="#LiberationSans-6d"/>
      <use x="83.30078125" xlink:href="#LiberationSans-61"/>
      <use x="138.916015625" xlink:href="#LiberationSans-72"/>
      <use x="172.216796875" xlink:href="#LiberationSans-6b"/>
      <use x="222.216796875" xlink:href="#LiberationSans-65"/>
      <use x="277.83203125" xlink:href="#LiberationSans-74"/>
      <use x="305.615234375" xlink:href="#LiberationSans-20"/>
      <use x="333.3984375" xlink:href="#LiberationSans-62"/>
      <use x="389.013671875" xlink:href="#LiberationSans-72"/>
      <use x="422.314453125" xlink:href="#LiberationSans-65"/>
      <use x="477.9296875" xlink:href="#LiberationSans-61"/>
      <use x="533.544921875" xlink:href="#LiberationSans-6b"/>
      <use x="583.544921875" xlink:href="#LiberationSans-64"/>
      <use x="639.16015625" xlink:href="#LiberationSans-6f"/>
      <use x="694.775390625" xlink:href="#LiberationSans-77"/>
      <use x="766.9921875" xlink:href="#LiberationSans-6e"/>
     </g>
    </g>
   </g>
   <g id="PolyCollection_1">
    <defs>
     <path d="
M90 -155.054
L90 -81
L136.5 -81
L183 -81
L229.5 -81
L276 -81
L322.5 -81
L369 -81
L415.5 -81
L462 -81
L508.5 -81
L555 -81
L601.5 -81
L648 -81
L648 -189.567
L648 -189.567
L601.5 -182.361
L555 -170.15
L508.5 -174.948
L462 -176.378
L415.5 -168.551
L369 -169.156
L322.5 -167.098
L276 -159.735
L229.5 -158.301
L183 -153.865
L136.5 -150.766
L90 -155.054
z
" id="m21a4a6810e" style="stroke:#3778bf;stroke-width:0.3;"/>
    </defs>
    <g clip-path="url(#p0891b91379)">
     <use style="fill:#3778bf;stroke:#3778bf;stroke-width:0.3;" x="0.0" xlink:href="#m21a4a6810e" y="648.0"/>
    </g>
   </g>
   <g id="PolyCollection_2">
    <defs>
     <path d="
M90 -205.898
L90 -155.054
L136.5 -150.766
L183 -153.865
L229.5 -158.301
L276 -159.735
L322.5 -167.098
L369 -169.156
L415.5 -168.551
L462 -176.378
L508.5 -174.948
L555 -170.15
L601.5 -182.361
L648 -189.567
L648 -265.298
L648 -265.298
L601.5 -251.426
L555 -229.652
L508.5 -234.822
L462 -236.815
L415.5 -225.62
L369 -202.479
L322.5 -199.475
L276 -191.791
L229.5 -193.888
L183 -200.163
L136.5 -199.205
L90 -205.898
z
" id="m4f32bb1088" style="stroke:#feb308;stroke-width:0.3;"/>
    </defs>
    <g clip-path="url(#p0891b91379)">
     <use style="fill:#feb308;stroke:#feb308;stroke-width:0.3;" x="0.0" xlink:href="#m4f32bb1088" y="648.0"/>
    </g>
   </g>
   <g id="PolyCollection_3">
    <defs>
     <path d="
M90 -263.11
L90 -205.898
L136.5 -199.205
L183 -200.163
L229.5 -193.888
L276 -191.791
L322.5 -199.475
L369 -202.479
L415.5 -225.62
L462 -236.815
L508.5 -234.822
L555 -229.652
L601.5 -251.426
L648 -265.298
L648 -326.374
L648 -326.374
L601.5 -297.825
L555 -272.062
L508.5 -278.085
L462 -281.229
L415.5 -267.739
L369 -245.425
L322.5 -242.811
L276 -234.488
L229.5 -239.144
L183 -247.535
L136.5 -248.412
L90 -263.11
z
" id="mc36918d459" style="stroke:#a5a502;stroke-width:0.3;"/>
    </defs>
    <g clip-path="url(#p0891b91379)">
     <use style="fill:#a5a502;stroke:#a5a502;stroke-width:0.3;" x="0.0" xlink:href="#mc36918d459" y="648.0"/>
    </g>
   </g>
   <g id="PolyCollection_4">
    <defs>
     <path d="
M90 -294.598
L90 -263.11
L136.5 -248.412
L183 -247.535
L229.5 -239.144
L276 -234.488
L322.5 -242.811
L369 -245.425
L415.5 -267.739
L462 -281.229
L508.5 -278.085
L555 -272.062
L601.5 -297.825
L648 -326.374
L648 -345.063
L648 -345.063
L601.5 -333.607
L555 -304.575
L508.5 -311.385
L462 -314.976
L415.5 -299.436
L369 -277.65
L322.5 -275.308
L276 -267.187
L229.5 -274.643
L183 -277.469
L136.5 -277.992
L90 -294.598
z
" id="m33a1627e03" style="stroke:#825f87;stroke-width:0.3;"/>
    </defs>
    <g clip-path="url(#p0891b91379)">
     <use style="fill:#825f87;stroke:#825f87;stroke-width:0.3;" x="0.0" xlink:href="#m33a1627e03" y="648.0"/>
    </g>
   </g>
   <g id="PolyCollection_5">
    <defs>
     <path d="
M90 -336.724
L90 -294.598
L136.5 -277.992
L183 -277.469
L229.5 -274.643
L276 -267.187
L322.5 -275.308
L369 -277.65
L415.5 -299.436
L462 -314.976
L508.5 -311.385
L555 -304.575
L601.5 -333.607
L648 -345.063
L648 -389.48
L648 -389.48
L601.5 -376.194
L555 -344.455
L508.5 -355.144
L462 -340.66
L415.5 -326.148
L369 -307.006
L322.5 -307.513
L276 -300.194
L229.5 -309.802
L183 -311.643
L136.5 -317.144
L90 -336.724
z
" id="m54d7242dbd" style="stroke:#653700;stroke-width:0.3;"/>
    </defs>
    <g clip-path="url(#p0891b91379)">
     <use style="fill:#653700;stroke:#653700;stroke-width:0.3;" x="0.0" xlink:href="#m54d7242dbd" y="648.0"/>
    </g>
   </g>
   <g id="PolyCollection_6">
    <defs>
     <path d="
M90 -342.28
L90 -336.724
L136.5 -317.144
L183 -311.643
L229.5 -309.802
L276 -300.194
L322.5 -307.513
L369 -307.006
L415.5 -326.148
L462 -340.66
L508.5 -355.144
L555 -344.455
L601.5 -376.194
L648 -389.48
L648 -389.48
L648 -389.48
L601.5 -376.194
L555 -344.455
L508.5 -355.144
L462 -340.66
L415.5 -326.148
L369 -307.006
L322.5 -307.513
L276 -300.194
L229.5 -311.18
L183 -314.746
L136.5 -322.465
L90 -342.28
z
" id="m2c8610006d" style="stroke:#ed0dd9;stroke-width:0.3;"/>
    </defs>
    <g clip-path="url(#p0891b91379)">
     <use style="fill:#ed0dd9;stroke:#ed0dd9;stroke-width:0.3;" x="0.0" xlink:href="#m2c8610006d" y="648.0"/>
    </g>
   </g>
   <g id="PolyCollection_7">
    <defs>
     <path d="
M90 -353.698
L90 -342.28
L136.5 -322.465
L183 -314.746
L229.5 -311.18
L276 -300.194
L322.5 -307.513
L369 -307.006
L415.5 -326.148
L462 -340.66
L508.5 -355.144
L555 -344.455
L601.5 -376.194
L648 -389.48
L648 -389.48
L648 -389.48
L601.5 -383.054
L555 -358.17
L508.5 -373.115
L462 -361.184
L415.5 -345.523
L369 -326.581
L322.5 -326.261
L276 -317.92
L229.5 -327.891
L183 -328.488
L136.5 -333.916
L90 -353.698
z
" id="mca55e50a3a" style="stroke:#ddd618;stroke-width:0.3;"/>
    </defs>
    <g clip-path="url(#p0891b91379)">
     <use style="fill:#ddd618;stroke:#ddd618;stroke-width:0.3;" x="0.0" xlink:href="#mca55e50a3a" y="648.0"/>
    </g>
   </g>
   <g id="PolyCollection_8">
    <defs>
     <path d="
M90 -392.028
L90 -353.698
L136.5 -333.916
L183 -328.488
L229.5 -327.891
L276 -317.92
L322.5 -326.261
L369 -326.581
L415.5 -345.523
L462 -361.184
L508.5 -373.115
L555 -358.17
L601.5 -383.054
L648 -389.48
L648 -389.48
L648 -389.48
L601.5 -383.054
L555 -358.17
L508.5 -373.115
L462 -361.184
L415.5 -345.523
L369 -349.403
L322.5 -351.168
L276 -345.843
L229.5 -358.33
L183 -362.305
L136.5 -369.65
L90 -392.028
z
" id="m10f757f278" style="stroke:#9ffeb0;stroke-width:0.3;"/>
    </defs>
    <g clip-path="url(#p0891b91379)">
     <use style="fill:#9ffeb0;stroke:#9ffeb0;stroke-width:0.3;" x="0.0" xlink:href="#m10f757f278" y="648.0"/>
    </g>
   </g>
   <g id="PolyCollection_9">
    <defs>
     <path d="
M90 -406.422
L90 -392.028
L136.5 -369.65
L183 -362.305
L229.5 -358.33
L276 -345.843
L322.5 -351.168
L369 -349.403
L415.5 -345.523
L462 -361.184
L508.5 -373.115
L555 -358.17
L601.5 -383.054
L648 -389.48
L648 -389.48
L648 -389.48
L601.5 -383.054
L555 -358.17
L508.5 -373.115
L462 -361.184
L415.5 -345.523
L369 -349.403
L322.5 -351.168
L276 -345.843
L229.5 -358.33
L183 -376.22
L136.5 -383.452
L90 -406.422
z
" id="m4817143520" style="stroke:#c79fef;stroke-width:0.3;"/>
    </defs>
    <g clip-path="url(#p0891b91379)">
     <use style="fill:#c79fef;stroke:#c79fef;stroke-width:0.3;" x="0.0" xlink:href="#m4817143520" y="648.0"/>
    </g>
   </g>
   <g id="PolyCollection_10">
    <defs>
     <path d="
M90 -429.774
L90 -406.422
L136.5 -383.452
L183 -376.22
L229.5 -358.33
L276 -345.843
L322.5 -351.168
L369 -349.403
L415.5 -345.523
L462 -361.184
L508.5 -373.115
L555 -358.17
L601.5 -383.054
L648 -389.48
L648 -389.48
L648 -389.48
L601.5 -383.054
L555 -358.17
L508.5 -373.115
L462 -381.43
L415.5 -364.152
L369 -369.503
L322.5 -372.55
L276 -367.61
L229.5 -380.085
L183 -397.084
L136.5 -404.538
L90 -429.774
z
" id="m4747797942" style="stroke:#155084;stroke-width:0.3;"/>
    </defs>
    <g clip-path="url(#p0891b91379)">
     <use style="fill:#155084;stroke:#155084;stroke-width:0.3;" x="0.0" xlink:href="#m4747797942" y="648.0"/>
    </g>
   </g>
   <g id="PolyCollection_11">
    <defs>
     <path d="
M90 -583.2
L90 -429.774
L136.5 -404.538
L183 -397.084
L229.5 -380.085
L276 -367.61
L322.5 -372.55
L369 -369.503
L415.5 -364.152
L462 -381.43
L508.5 -373.115
L555 -358.17
L601.5 -383.054
L648 -389.48
L648 -583.2
L648 -583.2
L601.5 -583.2
L555 -583.2
L508.5 -583.2
L462 -583.2
L415.5 -583.2
L369 -583.2
L322.5 -583.2
L276 -583.2
L229.5 -583.2
L183 -583.2
L136.5 -583.2
L90 -583.2
z
" id="m401b562a0f" style="stroke:#d8dcd6;stroke-width:0.3;"/>
    </defs>
    <g clip-path="url(#p0891b91379)">
     <use style="fill:#d8dcd6;stroke:#d8dcd6;stroke-width:0.3;" x="0.0" xlink:href="#m401b562a0f" y="648.0"/>
    </g>
   </g>
   <g id="line2d_25">
    <path clip-path="url(#p0891b91379)" d="
M90 492.946
L136.5 497.234
L183 494.135
L229.5 489.699
L276 488.265
L322.5 480.902
L369 478.844
L415.5 479.449
L462 471.622
L508.5 473.052
L555 477.85
L601.5 465.639
L648 458.433" style="fill:none;stroke:#3778bf;stroke-linecap:round;stroke-width:1.75;"/>
   </g>
   <g id="line2d_26">
    <path clip-path="url(#p0891b91379)" d="
M90 442.102
L136.5 448.795
L183 447.837
L229.5 454.112
L276 456.209
L322.5 448.525
L369 445.521
L415.5 422.38
L462 411.185
L508.5 413.178
L555 418.348
L601.5 396.574
L648 382.702" style="fill:none;stroke:#feb308;stroke-linecap:round;stroke-width:1.75;"/>
   </g>
   <g id="line2d_27">
    <path clip-path="url(#p0891b91379)" d="
M90 384.89
L136.5 399.588
L183 400.465
L229.5 408.856
L276 413.512
L322.5 405.189
L369 402.575
L415.5 380.261
L462 366.771
L508.5 369.915
L555 375.938
L601.5 350.175
L648 321.626" style="fill:none;stroke:#a5a502;stroke-linecap:round;stroke-width:1.75;"/>
   </g>
   <g id="line2d_28">
    <path clip-path="url(#p0891b91379)" d="
M90 353.402
L136.5 370.008
L183 370.531
L229.5 373.357
L276 380.813
L322.5 372.692
L369 370.35
L415.5 348.564
L462 333.024
L508.5 336.615
L555 343.425
L601.5 314.393
L648 302.937" style="fill:none;stroke:#825f87;stroke-linecap:round;stroke-width:1.75;"/>
   </g>
   <g id="line2d_29">
    <path clip-path="url(#p0891b91379)" d="
M90 311.276
L136.5 330.856
L183 336.357
L229.5 338.198
L276 347.806
L322.5 340.487
L369 340.994
L415.5 321.852
L462 307.34
L508.5 292.856
L555 303.545
L601.5 271.806
L648 258.52" style="fill:none;stroke:#653700;stroke-linecap:round;stroke-width:1.75;"/>
   </g>
   <g id="line2d_30">
    <path clip-path="url(#p0891b91379)" d="
M90 305.72
L136.5 325.535
L183 333.254
L229.5 336.82
L276 347.806
L322.5 340.487
L369 340.994
L415.5 321.852
L462 307.34
L508.5 292.856
L555 303.545
L601.5 271.806
L648 258.52" style="fill:none;stroke:#ed0dd9;stroke-linecap:round;stroke-width:1.75;"/>
   </g>
   <g id="line2d_31">
    <path clip-path="url(#p0891b91379)" d="
M90 294.302
L136.5 314.084
L183 319.512
L229.5 320.109
L276 330.08
L322.5 321.739
L369 321.419
L415.5 302.477
L462 286.816
L508.5 274.885
L555 289.83
L601.5 264.946
L648 258.52" style="fill:none;stroke:#ddd618;stroke-linecap:round;stroke-width:1.75;"/>
   </g>
   <g id="line2d_32">
    <path clip-path="url(#p0891b91379)" d="
M90 255.972
L136.5 278.35
L183 285.695
L229.5 289.67
L276 302.157
L322.5 296.832
L369 298.597
L415.5 302.477
L462 286.816
L508.5 274.885
L555 289.83
L601.5 264.946
L648 258.52" style="fill:none;stroke:#9ffeb0;stroke-linecap:round;stroke-width:1.75;"/>
   </g>
   <g id="line2d_33">
    <path clip-path="url(#p0891b91379)" d="
M90 241.578
L136.5 264.548
L183 271.78
L229.5 289.67
L276 302.157
L322.5 296.832
L369 298.597
L415.5 302.477
L462 286.816
L508.5 274.885
L555 289.83
L601.5 264.946
L648 258.52" style="fill:none;stroke:#c79fef;stroke-linecap:round;stroke-width:1.75;"/>
   </g>
   <g id="line2d_34">
    <path clip-path="url(#p0891b91379)" d="
M90 218.226
L136.5 243.462
L183 250.916
L229.5 267.915
L276 280.39
L322.5 275.45
L369 278.497
L415.5 283.848
L462 266.57
L508.5 274.885
L555 289.83
L601.5 264.946
L648 258.52" style="fill:none;stroke:#155084;stroke-linecap:round;stroke-width:1.75;"/>
   </g>
   <g id="line2d_35">
    <path clip-path="url(#p0891b91379)" d="
M90 64.8
L136.5 64.8
L183 64.8
L229.5 64.8
L276 64.8
L322.5 64.8
L369 64.8
L415.5 64.8
L462 64.8
L508.5 64.8
L555 64.8
L601.5 64.8
L648 64.8" style="fill:none;stroke:#d8dcd6;stroke-linecap:round;stroke-width:1.75;"/>
   </g>
   <g id="patch_3">
    <path d="
M90 64.8
L648 64.8" style="fill:none;stroke:#262626;stroke-linecap:square;stroke-linejoin:miter;stroke-width:1.25;"/>
   </g>
   <g id="patch_4">
    <path d="
M648 567
L648 64.8" style="fill:none;stroke:#262626;stroke-linecap:square;stroke-linejoin:miter;stroke-width:1.25;"/>
   </g>
   <g id="patch_5">
    <path d="
M90 567
L648 567" style="fill:none;stroke:#262626;stroke-linecap:square;stroke-linejoin:miter;stroke-width:1.25;"/>
   </g>
   <g id="patch_6">
    <path d="
M90 567
L90 64.8" style="fill:none;stroke:#262626;stroke-linecap:square;stroke-linejoin:miter;stroke-width:1.25;"/>
   </g>
   <g id="text_15">
    <!-- Airline Market Share Evolution -->
    <defs>
     <path d="
M63.8125 0
L63.8125 41.7031
Q63.8125 44.1875 63.8906 46.8281
Q63.9688 49.4688 64.0625 51.6562
Q64.2031 54.25 64.3125 56.6875
Q63.2812 52.8281 62.3594 49.3594
Q61.9688 47.9062 61.5156 46.3438
Q61.0781 44.7812 60.6562 43.3125
Q60.25 41.8438 59.8594 40.5781
Q59.4688 39.3125 59.1875 38.375
L46.7812 0
L36.5312 0
L24.125 38.375
Q23.8281 39.3125 23.4531 40.5781
Q23.0938 41.8438 22.6719 43.3125
Q22.2656 44.7812 21.8281 46.3438
Q21.3906 47.9062 20.9531 49.3594
Q19.9688 52.8281 18.8906 56.6875
Q19.0469 53.8594 19.1875 51.125
Q19.2812 48.7812 19.375 46.1875
Q19.4844 43.6094 19.4844 41.7031
L19.4844 0
L6.6875 0
L6.6875 68.7969
L25.9844 68.7969
L38.2812 30.3281
Q38.7656 28.8125 39.3281 26.6094
Q39.8906 24.4219 40.4375 22.3594
Q41.0156 19.9688 41.7031 17.3906
Q42.3906 19.9219 43.0156 22.2656
Q43.3125 23.2969 43.5938 24.3594
Q43.8906 25.4375 44.1875 26.4531
Q44.4844 27.4844 44.7656 28.4062
Q45.0625 29.3438 45.3125 30.0781
L57.4219 68.7969
L76.6094 68.7969
L76.6094 0
z
" id="LiberationSans-Bold-4d"/>
     <path id="LiberationSans-Bold-20"/>
     <path d="
M27.5938 11.0781
L40.8281 52.8281
L55.1719 52.8281
L35.6875 0
L19.2812 0
L0.390625 52.8281
L14.8906 52.8281
z
" id="LiberationSans-Bold-76"/>
     <path d="
M57.1719 26.4688
Q57.1719 20.4062 55.4844 15.375
Q53.8125 10.3594 50.4375 6.71875
Q47.0781 3.07812 42.0469 1.04688
Q37.0156 -0.984375 30.3281 -0.984375
Q23.875 -0.984375 18.9375 1.01562
Q14.0156 3.03125 10.6719 6.64062
Q7.32812 10.25 5.60938 15.2969
Q3.90625 20.3594 3.90625 26.4688
Q3.90625 32.375 5.53125 37.375
Q7.17188 42.3906 10.4844 46.0469
Q13.8125 49.7031 18.8438 51.75
Q23.875 53.8125 30.6094 53.8125
Q37.75 53.8125 42.7656 51.75
Q47.7969 49.7031 51 46.0625
Q54.2031 42.4375 55.6875 37.4219
Q57.1719 32.4219 57.1719 26.4688
M42.8281 26.4688
Q42.8281 35.8906 39.75 40.1406
Q36.6719 44.3906 30.8125 44.3906
Q24.75 44.3906 21.5312 40.0938
Q18.3125 35.7969 18.3125 26.4688
Q18.3125 21.7344 19.1562 18.3125
Q20.0156 14.8906 21.5781 12.6875
Q23.1406 10.5 25.3438 9.45312
Q27.5469 8.40625 30.1719 8.40625
Q33.2031 8.40625 35.5625 9.45312
Q37.9375 10.5 39.5469 12.6875
Q41.1562 14.8906 41.9844 18.3125
Q42.8281 21.7344 42.8281 26.4688" id="LiberationSans-Bold-6f"/>
     <path d="
M41.2188 0
L41.2188 29.6406
Q41.2188 32.7188 40.7188 35.2812
Q40.2344 37.8438 39.1094 39.6719
Q37.9844 41.5 36.1719 42.5312
Q34.375 43.5625 31.7812 43.5625
Q29.2969 43.5625 27.2656 42.4531
Q25.25 41.3594 23.7812 39.3281
Q22.3125 37.3125 21.5 34.5
Q20.7031 31.6875 20.7031 28.3281
L20.7031 0
L6.98438 0
L6.98438 41.0156
Q6.98438 42.7188 6.95312 44.5312
Q6.9375 46.3438 6.85938 47.9688
Q6.78125 49.6094 6.73438 50.9062
Q6.6875 52.2031 6.59375 52.8281
L19.6719 52.8281
Q19.7812 52.25 19.875 50.9531
Q19.9688 49.6562 20.0625 48.0938
Q20.1719 46.5312 20.2344 44.9688
Q20.3125 43.4062 20.3125 42.3281
L20.5156 42.3281
Q23.2969 48.3906 27.4844 51.125
Q31.6875 53.8594 37.5 53.8594
Q42.2812 53.8594 45.5781 52.2969
Q48.875 50.7344 50.9531 48
Q53.0312 45.2656 53.9531 41.5469
Q54.8906 37.8438 54.8906 33.5469
L54.8906 0
z
" id="LiberationSans-Bold-6e"/>
     <path d="
M6.98438 0
L6.98438 72.4688
L20.7031 72.4688
L20.7031 0
z
" id="LiberationSans-Bold-6c"/>
     <path d="
M40.7188 0
L26.6094 23.9219
L20.7031 19.8281
L20.7031 0
L6.98438 0
L6.98438 72.4688
L20.7031 72.4688
L20.7031 30.9531
L39.5469 52.8281
L54.2969 52.8281
L35.75 32.2344
L55.7188 0
z
" id="LiberationSans-Bold-6b"/>
     <path d="
M6.6875 0
L6.6875 68.7969
L60.7969 68.7969
L60.7969 57.6719
L21.0938 57.6719
L21.0938 40.375
L57.8125 40.375
L57.8125 29.25
L21.0938 29.25
L21.0938 11.1406
L62.7969 11.1406
L62.7969 0
z
" id="LiberationSans-Bold-45"/>
     <path d="
M6.98438 0
L6.98438 40.4375
Q6.98438 42.1406 6.95312 44.0469
Q6.9375 45.9531 6.85938 47.6875
Q6.78125 49.4219 6.73438 50.8125
Q6.6875 52.2031 6.59375 52.8281
L19.6719 52.8281
Q19.7812 52.25 19.875 50.7969
Q19.9688 49.3594 20.0625 47.6562
Q20.1719 45.9531 20.2344 44.2656
Q20.3125 42.5781 20.3125 41.5469
L20.5156 41.5469
Q21.5312 44.4375 22.5469 46.7031
Q23.5781 48.9688 24.9688 50.5625
Q26.375 52.1562 28.3281 53
Q30.2812 53.8594 33.1562 53.8594
Q34.375 53.8594 35.5625 53.6406
Q36.7656 53.4219 37.4062 53.125
L37.4062 41.6562
Q36.0781 41.9375 34.7344 42.1562
Q33.4062 42.3906 31.5469 42.3906
Q26.4219 42.3906 23.5625 38.2344
Q20.7031 34.0781 20.7031 25.9219
L20.7031 0
z
" id="LiberationSans-Bold-72"/>
     <path d="
M55.3281 0
L49.2188 17.5781
L23 17.5781
L16.8906 0
L2.48438 0
L27.5938 68.7969
L44.5781 68.7969
L69.5781 0
z

M39.2031 48.1875
Q38.625 49.9062 38.0625 51.6406
Q37.5 53.375 37.0781 54.8125
Q36.6719 56.25 36.4062 57.1719
Q36.1406 58.1094 36.0781 58.2031
Q36.0312 58.0625 35.7812 57.125
Q35.5469 56.2031 35.125 54.7812
Q34.7188 53.375 34.1562 51.6406
Q33.5938 49.9062 33.0156 48.1875
L26.2188 28.4219
L46 28.4219
z
" id="LiberationSans-Bold-41"/>
     <path d="
M62.7969 19.8281
Q62.7969 15.1406 61.0781 11.2969
Q59.375 7.46875 55.7812 4.73438
Q52.2031 2 46.6094 0.5
Q41.0156 -0.984375 33.2969 -0.984375
Q26.4688 -0.984375 21.2344 0.234375
Q16.0156 1.46875 12.2812 3.85938
Q8.54688 6.25 6.21875 9.78125
Q3.90625 13.3281 2.875 17.9219
L16.7969 20.2188
Q17.3906 17.9219 18.5 16.0156
Q19.625 14.1094 21.5938 12.7188
Q23.5781 11.3281 26.5312 10.5625
Q29.5 9.8125 33.6875 9.8125
Q41.0156 9.8125 44.8906 12.0312
Q48.7812 14.2656 48.7812 19
Q48.7812 21.8281 47.2188 23.625
Q45.6562 25.4375 43.0625 26.6094
Q40.4844 27.7812 37.1094 28.5625
Q33.7344 29.3438 30.0781 30.0781
Q27.1562 30.7656 24.2188 31.5
Q21.2969 32.2344 18.625 33.25
Q15.9688 34.2812 13.6719 35.6875
Q11.375 37.1094 9.6875 39.1875
Q8.01562 41.2656 7.0625 44.0469
Q6.10938 46.8281 6.10938 50.5938
Q6.10938 55.7188 8.15625 59.375
Q10.2031 63.0312 13.8438 65.3438
Q17.4844 67.6719 22.5156 68.75
Q27.5469 69.8281 33.5 69.8281
Q40.2344 69.8281 45.0469 68.7656
Q49.8594 67.7188 53.0938 65.5625
Q56.3438 63.4219 58.2188 60.1719
Q60.1094 56.9375 60.9844 52.5938
L47.0156 50.6875
Q45.9531 55.125 42.6562 57.375
Q39.3594 59.625 33.2031 59.625
Q29.3906 59.625 26.875 58.9531
Q24.3594 58.2969 22.875 57.1719
Q21.3906 56.0625 20.75 54.5625
Q20.125 53.0781 20.125 51.4219
Q20.125 48.875 21.3438 47.2344
Q22.5625 45.6094 24.75 44.5
Q26.9531 43.4062 30 42.6406
Q33.0625 41.8906 36.7188 41.1094
Q39.9375 40.4375 43.1094 39.6719
Q46.2969 38.9219 49.1719 37.8906
Q52.0469 36.8594 54.5312 35.3906
Q57.0312 33.9375 58.8594 31.8125
Q60.6875 29.6875 61.7344 26.75
Q62.7969 23.8281 62.7969 19.8281" id="LiberationSans-Bold-53"/>
     <path d="
M6.98438 62.3594
L6.98438 72.4688
L20.7031 72.4688
L20.7031 62.3594
z

M6.98438 0
L6.98438 52.8281
L20.7031 52.8281
L20.7031 0
z
" id="LiberationSans-Bold-69"/>
     <path d="
M20.5156 42.2812
Q23.2969 48.3438 27.4844 51.0781
Q31.6875 53.8125 37.5 53.8125
Q42.2812 53.8125 45.5781 52.25
Q48.875 50.6875 50.9531 47.9531
Q53.0312 45.2188 53.9531 41.5
Q54.8906 37.7969 54.8906 33.5
L54.8906 0
L41.2188 0
L41.2188 29.5938
Q41.2188 32.6719 40.7188 35.2344
Q40.2344 37.7969 39.1094 39.625
Q37.9844 41.4531 36.1719 42.4688
Q34.375 43.5 31.7812 43.5
Q29.2969 43.5 27.2656 42.4062
Q25.25 41.3125 23.7812 39.2812
Q22.3125 37.25 21.5 34.4375
Q20.7031 31.6406 20.7031 28.2656
L20.7031 0
L6.98438 0
L6.98438 72.4688
L20.7031 72.4688
L20.7031 52.6875
Q20.7031 51.125 20.6562 49.5312
Q20.6094 47.9531 20.5312 46.5625
Q20.4531 45.1719 20.4062 44.0469
Q20.3594 42.9219 20.3125 42.2812
z
" id="LiberationSans-Bold-68"/>
     <path d="
M20.5156 -0.875
Q14.4531 -0.875 11.1719 2.42188
Q7.90625 5.71875 7.90625 12.4062
L7.90625 43.5625
L1.21875 43.5625
L1.21875 52.8281
L8.59375 52.8281
L12.8906 65.2344
L21.4844 65.2344
L21.4844 52.8281
L31.5 52.8281
L31.5 43.5625
L21.4844 43.5625
L21.4844 16.1094
Q21.4844 12.25 22.9531 10.4219
Q24.4219 8.59375 27.4844 8.59375
Q28.7656 8.59375 29.7812 8.78125
Q30.8125 8.98438 32.0781 9.28125
L32.0781 0.78125
Q29.5469 -0.046875 26.7031 -0.453125
Q23.875 -0.875 20.5156 -0.875" id="LiberationSans-Bold-74"/>
     <path d="
M28.6094 -0.984375
Q22.9062 -0.984375 18.3281 0.703125
Q13.7656 2.39062 10.5469 5.82812
Q7.32812 9.28125 5.60938 14.4688
Q3.90625 19.6719 3.90625 26.6562
Q3.90625 34.2344 5.92188 39.4062
Q7.95312 44.5781 11.3906 47.7812
Q14.8438 50.9844 19.3281 52.3906
Q23.8281 53.8125 28.8125 53.8125
Q35.0625 53.8125 39.4688 51.6406
Q43.8906 49.4688 46.7188 45.5625
Q49.5625 41.6562 50.875 36.2031
Q52.2031 30.7656 52.2031 24.1719
L52.2031 23.7812
L18.3125 23.7812
Q18.3125 20.4531 18.8906 17.5938
Q19.4844 14.75 20.7969 12.6719
Q22.125 10.5938 24.2188 9.39062
Q26.3125 8.20312 29.2969 8.20312
Q32.9062 8.20312 35.2031 9.73438
Q37.5 11.2812 38.4844 14.5
L51.4219 13.375
Q50.5312 11.1406 48.9375 8.59375
Q47.3594 6.0625 44.7188 3.9375
Q42.0938 1.8125 38.1562 0.40625
Q34.2344 -0.984375 28.6094 -0.984375
M28.6094 45.1719
Q26.5156 45.1719 24.6875 44.4531
Q22.8594 43.75 21.5156 42.2031
Q20.1719 40.6719 19.3281 38.2344
Q18.5 35.7969 18.4062 32.375
L38.9219 32.375
Q38.5312 38.7656 35.8438 41.9688
Q33.1562 45.1719 28.6094 45.1719" id="LiberationSans-Bold-65"/>
     <path d="
M19.1875 -0.984375
Q15.375 -0.984375 12.375 0.0625
Q9.375 1.125 7.26562 3.14062
Q5.17188 5.17188 4.04688 8.15625
Q2.9375 11.1406 2.9375 14.9375
Q2.9375 19.625 4.5625 22.8281
Q6.20312 26.0312 9.03125 28
Q11.8594 29.9844 15.6719 30.875
Q19.4844 31.7812 23.7812 31.8438
L35.1562 32.0312
L35.1562 34.7188
Q35.1562 37.5938 34.6406 39.5156
Q34.125 41.4531 33.1406 42.6719
Q32.1719 43.8906 30.7344 44.4062
Q29.2969 44.9219 27.4375 44.9219
Q25.7344 44.9219 24.3906 44.5781
Q23.0469 44.2344 22.0625 43.375
Q21.0938 42.5312 20.4844 41.0938
Q19.875 39.6562 19.625 37.4531
L5.32812 38.1406
Q5.90625 41.6094 7.46875 44.4531
Q9.03125 47.3125 11.7812 49.4062
Q14.5469 51.5156 18.5781 52.6562
Q22.6094 53.8125 28.0312 53.8125
Q32.9531 53.8125 36.8125 52.5938
Q40.6719 51.375 43.3594 48.9531
Q46.0469 46.5312 47.4531 43.0156
Q48.875 39.5 48.875 34.8594
L48.875 15.625
Q48.875 13.7656 49.0469 12.2969
Q49.2188 10.8438 49.6719 9.84375
Q50.1406 8.84375 51 8.32812
Q51.8594 7.8125 53.2188 7.8125
Q54.7812 7.8125 56.25 8.10938
L56.25 0.6875
Q55.0312 0.390625 54.0469 0.140625
Q53.0781 -0.09375 52.0938 -0.234375
Q51.125 -0.390625 50.0156 -0.484375
Q48.9219 -0.59375 47.4688 -0.59375
Q42.2812 -0.59375 39.8125 1.95312
Q37.3594 4.5 36.8594 9.42188
L36.5781 9.42188
Q33.8438 4.5 29.5625 1.75
Q25.2969 -0.984375 19.1875 -0.984375
M35.1562 24.4688
L28.125 24.3594
Q25.9219 24.2656 23.9375 24
Q21.9688 23.7344 20.4844 22.875
Q19 22.0156 18.1094 20.4062
Q17.2344 18.7969 17.2344 16.0156
Q17.2344 12.25 18.9688 10.4219
Q20.7031 8.59375 23.5781 8.59375
Q26.2188 8.59375 28.3594 9.71875
Q30.5156 10.8438 32 12.6719
Q33.5 14.5 34.3281 16.8906
Q35.1562 19.2812 35.1562 21.7812
z
" id="LiberationSans-Bold-61"/>
     <path d="
M19.9219 52.8281
L19.9219 23.1875
Q19.9219 20.125 20.4062 17.5469
Q20.9062 14.9844 22.0156 13.1562
Q23.1406 11.3281 24.9219 10.2969
Q26.7031 9.28125 29.2969 9.28125
Q31.7812 9.28125 33.8125 10.375
Q35.8438 11.4688 37.2969 13.5
Q38.7656 15.5312 39.5625 18.3281
Q40.375 21.1406 40.375 24.5156
L40.375 52.8281
L54.1094 52.8281
L54.1094 11.8125
Q54.1094 10.1562 54.125 8.32812
Q54.1562 6.5 54.2188 4.85938
Q54.2969 3.21875 54.3594 1.92188
Q54.4375 0.640625 54.5 0
L41.4062 0
Q41.3594 0.59375 41.2344 1.875
Q41.1094 3.17188 41.0312 4.73438
Q40.9688 6.29688 40.8906 7.85938
Q40.8281 9.42188 40.8281 10.5
L40.5781 10.5
Q37.8438 4.5 33.6094 1.75
Q29.3906 -0.984375 23.5781 -0.984375
Q18.8438 -0.984375 15.5156 0.578125
Q12.2031 2.15625 10.125 4.85938
Q8.0625 7.5625 7.125 11.2656
Q6.20312 14.9844 6.20312 19.2812
L6.20312 52.8281
z
" id="LiberationSans-Bold-75"/>
    </defs>
    <g style="fill:#262626;" transform="translate(260.694140625 59.8)scale(0.15 -0.15)">
     <use xlink:href="#LiberationSans-Bold-41"/>
     <use x="72.216796875" xlink:href="#LiberationSans-Bold-69"/>
     <use x="100.0" xlink:href="#LiberationSans-Bold-72"/>
     <use x="138.916015625" xlink:href="#LiberationSans-Bold-6c"/>
     <use x="166.69921875" xlink:href="#LiberationSans-Bold-69"/>
     <use x="194.482421875" xlink:href="#LiberationSans-Bold-6e"/>
     <use x="255.56640625" xlink:href="#LiberationSans-Bold-65"/>
     <use x="311.181640625" xlink:href="#LiberationSans-Bold-20"/>
     <use x="338.96484375" xlink:href="#LiberationSans-Bold-4d"/>
     <use x="422.265625" xlink:href="#LiberationSans-Bold-61"/>
     <use x="477.880859375" xlink:href="#LiberationSans-Bold-72"/>
     <use x="516.796875" xlink:href="#LiberationSans-Bold-6b"/>
     <use x="572.412109375" xlink:href="#LiberationSans-Bold-65"/>
     <use x="628.02734375" xlink:href="#LiberationSans-Bold-74"/>
     <use x="661.328125" xlink:href="#LiberationSans-Bold-20"/>
     <use x="689.111328125" xlink:href="#LiberationSans-Bold-53"/>
     <use x="755.810546875" xlink:href="#LiberationSans-Bold-68"/>
     <use x="816.89453125" xlink:href="#LiberationSans-Bold-61"/>
     <use x="872.509765625" xlink:href="#LiberationSans-Bold-72"/>
     <use x="911.42578125" xlink:href="#LiberationSans-Bold-65"/>
     <use x="967.041015625" xlink:href="#LiberationSans-Bold-20"/>
     <use x="994.82421875" xlink:href="#LiberationSans-Bold-45"/>
     <use x="1061.5234375" xlink:href="#LiberationSans-Bold-76"/>
     <use x="1117.13867188" xlink:href="#LiberationSans-Bold-6f"/>
     <use x="1178.22265625" xlink:href="#LiberationSans-Bold-6c"/>
     <use x="1206.00585938" xlink:href="#LiberationSans-Bold-75"/>
     <use x="1267.08984375" xlink:href="#LiberationSans-Bold-74"/>
     <use x="1300.390625" xlink:href="#LiberationSans-Bold-69"/>
     <use x="1328.17382812" xlink:href="#LiberationSans-Bold-6f"/>
     <use x="1389.2578125" xlink:href="#LiberationSans-Bold-6e"/>
    </g>
   </g>
   <g id="legend_1">
    <g id="line2d_36">
     <path d="
M269.1 81.3709
L295.1 81.3709" style="fill:none;stroke:#3778bf;stroke-linecap:round;stroke-width:1.75;"/>
    </g>
    <g id="line2d_37"/>
    <g id="text_16">
     <!-- Southwest Airlines Co. -->
     <defs>
      <path d="
M46.3906 14.5938
Q46.3906 10.8906 44.9375 7.98438
Q43.5 5.07812 40.7656 3.09375
Q38.0312 1.125 34.0469 0.0625
Q30.0781 -0.984375 24.9531 -0.984375
Q20.3594 -0.984375 16.6719 -0.265625
Q12.9844 0.4375 10.2031 2
Q7.42188 3.5625 5.53125 6.125
Q3.65625 8.6875 2.78125 12.4062
L10.5469 13.9219
Q11.6719 9.67188 15.1875 7.6875
Q18.7031 5.71875 24.9531 5.71875
Q27.7812 5.71875 30.1406 6.10938
Q32.5156 6.5 34.2188 7.45312
Q35.9375 8.40625 36.8906 9.98438
Q37.8438 11.5781 37.8438 13.9219
Q37.8438 16.3125 36.7188 17.8438
Q35.5938 19.3906 33.5938 20.4062
Q31.5938 21.4375 28.7344 22.1875
Q25.875 22.9531 22.4688 23.875
Q19.2812 24.7031 16.1562 25.7344
Q13.0312 26.7656 10.5156 28.4375
Q8.01562 30.125 6.45312 32.6094
Q4.89062 35.1094 4.89062 38.875
Q4.89062 46.0938 10.0312 49.875
Q15.1875 53.6562 25.0469 53.6562
Q33.7969 53.6562 38.9375 50.5781
Q44.0938 47.5156 45.4531 40.7188
L37.5469 39.75
Q37.1094 41.7969 35.9375 43.1875
Q34.7656 44.5781 33.1094 45.4375
Q31.4531 46.2969 29.375 46.6562
Q27.2969 47.0156 25.0469 47.0156
Q19.0938 47.0156 16.25 45.2031
Q13.4219 43.4062 13.4219 39.75
Q13.4219 37.5938 14.4688 36.2031
Q15.5312 34.8125 17.4062 33.8594
Q19.2812 32.9062 21.9219 32.2031
Q24.5625 31.5 27.7344 30.7188
Q29.8281 30.1719 32.0312 29.5625
Q34.2344 28.9531 36.2969 28.0938
Q38.375 27.25 40.2031 26.0938
Q42.0469 24.9531 43.4062 23.3438
Q44.7812 21.7344 45.5781 19.5781
Q46.3906 17.4375 46.3906 14.5938" id="LiberationSans-73"/>
      <path d="
M15.3281 52.8281
L15.3281 19.3438
Q15.3281 15.4844 15.8906 12.8906
Q16.4531 10.2969 17.7188 8.70312
Q19 7.125 21.0625 6.46875
Q23.1406 5.8125 26.2188 5.8125
Q29.3438 5.8125 31.8594 6.90625
Q34.375 8.01562 36.1562 10.0781
Q37.9375 12.1562 38.9062 15.2031
Q39.8906 18.2656 39.8906 22.2188
L39.8906 52.8281
L48.6875 52.8281
L48.6875 11.2812
Q48.6875 9.625 48.7031 7.78125
Q48.7344 5.95312 48.7812 4.3125
Q48.8281 2.6875 48.875 1.51562
Q48.9219 0.34375 48.9688 0
L40.6719 0
Q40.625 0.25 40.5781 1.3125
Q40.5312 2.39062 40.4531 3.78125
Q40.375 5.17188 40.3281 6.60938
Q40.2812 8.0625 40.2812 9.03125
L40.1406 9.03125
Q38.875 6.73438 37.3594 4.875
Q35.8438 3.03125 33.8438 1.73438
Q31.8438 0.4375 29.25 -0.265625
Q26.6562 -0.984375 23.25 -0.984375
Q18.8438 -0.984375 15.6719 0.09375
Q12.5 1.17188 10.4531 3.42188
Q8.40625 5.67188 7.45312 9.1875
Q6.5 12.7031 6.5 17.625
L6.5 52.8281
z
" id="LiberationSans-75"/>
      <path d="
M15.4844 43.7969
Q16.9375 46.4844 18.6406 48.3594
Q20.3594 50.25 22.4062 51.4688
Q24.4688 52.6875 26.9062 53.25
Q29.3438 53.8125 32.375 53.8125
Q37.4531 53.8125 40.7031 52.4375
Q43.9531 51.0781 45.8281 48.6094
Q47.7031 46.1406 48.4062 42.7188
Q49.125 39.3125 49.125 35.2031
L49.125 0
L40.2812 0
L40.2812 33.5
Q40.2812 36.8594 39.8594 39.3906
Q39.4531 41.9375 38.2812 43.625
Q37.1094 45.3125 34.9531 46.1562
Q32.8125 47.0156 29.3906 47.0156
Q26.2656 47.0156 23.75 45.8906
Q21.2344 44.7812 19.4531 42.7188
Q17.6719 40.6719 16.6875 37.7344
Q15.7188 34.8125 15.7188 31.1562
L15.7188 0
L6.9375 0
L6.9375 72.4688
L15.7188 72.4688
L15.7188 53.6094
Q15.7188 52 15.6719 50.3906
Q15.625 48.7812 15.5469 47.4062
Q15.4844 46.0469 15.4219 45.0938
Q15.375 44.1406 15.3281 43.7969
z
" id="LiberationSans-68"/>
      <path d="
M6.6875 64.0625
L6.6875 72.4688
L15.4844 72.4688
L15.4844 64.0625
z

M6.6875 0
L6.6875 52.8281
L15.4844 52.8281
L15.4844 0
z
" id="LiberationSans-69"/>
      <path d="
M6.73438 0
L6.73438 72.4688
L15.5312 72.4688
L15.5312 0
z
" id="LiberationSans-6c"/>
      <path d="
M38.6719 62.2031
Q32.8125 62.2031 28.2969 60.25
Q23.7812 58.2969 20.7188 54.6875
Q17.6719 51.0781 16.1094 46
Q14.5469 40.9219 14.5469 34.7188
Q14.5469 28.5156 16.2344 23.3594
Q17.9219 18.2188 21.0625 14.5
Q24.2188 10.7969 28.7812 8.73438
Q33.3438 6.6875 39.0625 6.6875
Q43.0625 6.6875 46.3594 7.73438
Q49.6562 8.79688 52.3125 10.6875
Q54.9844 12.5938 57.0781 15.2031
Q59.1875 17.8281 60.7969 21
L68.4062 17.1875
Q66.5469 13.3281 63.8125 10
Q61.0781 6.6875 57.3906 4.25
Q53.7188 1.8125 49.0469 0.40625
Q44.3906 -0.984375 38.625 -0.984375
Q30.2812 -0.984375 24 1.67188
Q17.7188 4.34375 13.5 9.10938
Q9.28125 13.875 7.17188 20.4062
Q5.07812 26.9531 5.07812 34.7188
Q5.07812 42.7812 7.29688 49.2656
Q9.51562 55.7656 13.7812 60.3281
Q18.0625 64.8906 24.3125 67.3594
Q30.5625 69.8281 38.5781 69.8281
Q49.5625 69.8281 56.9375 65.5312
Q64.3125 61.2344 67.7812 52.7812
L58.9375 49.8594
Q57.9531 52.2969 56.2969 54.5156
Q54.6406 56.7344 52.1406 58.4375
Q49.6562 60.1562 46.3125 61.1719
Q42.9688 62.2031 38.6719 62.2031" id="LiberationSans-43"/>
      <path d="
M62.1094 19
Q62.1094 14.6562 60.4219 10.9844
Q58.7344 7.32812 55.2188 4.65625
Q51.7031 2 46.3594 0.5
Q41.0156 -0.984375 33.6875 -0.984375
Q20.8438 -0.984375 13.6719 3.51562
Q6.5 8.01562 4.54688 16.5
L13.5781 18.3125
Q14.2656 15.625 15.6719 13.4219
Q17.0938 11.2344 19.5 9.64062
Q21.9219 8.0625 25.4844 7.17188
Q29.0469 6.29688 34.0312 6.29688
Q38.1875 6.29688 41.6562 7
Q45.125 7.71875 47.6094 9.17188
Q50.0938 10.6406 51.4844 12.9531
Q52.875 15.2812 52.875 18.5
Q52.875 21.875 51.3438 23.9688
Q49.8125 26.0781 47.0156 27.4375
Q44.2344 28.8125 40.375 29.7344
Q36.5312 30.6719 31.8438 31.7344
Q28.9531 32.375 26.0469 33.125
Q23.1406 33.8906 20.4844 34.9375
Q17.8281 35.9844 15.4844 37.3906
Q13.1406 38.8125 11.4219 40.7969
Q9.71875 42.7812 8.73438 45.3906
Q7.76562 48 7.76562 51.4219
Q7.76562 56.2969 9.73438 59.7812
Q11.7188 63.2812 15.2344 65.5312
Q18.75 67.7812 23.5312 68.7969
Q28.3281 69.8281 33.8906 69.8281
Q40.2812 69.8281 44.8125 68.8281
Q49.3594 67.8281 52.4844 65.8125
Q55.6094 63.8125 57.4844 60.8594
Q59.375 57.9062 60.5 54
L51.3125 52.3906
Q50.6406 54.8906 49.3438 56.8438
Q48.0469 58.7969 45.9375 60.1094
Q43.8438 61.4219 40.8438 62.1094
Q37.8438 62.7969 33.7969 62.7969
Q29 62.7969 25.75 61.9375
Q22.5156 61.0781 20.5312 59.6094
Q18.5625 58.1562 17.7031 56.1719
Q16.8438 54.2031 16.8438 51.9062
Q16.8438 48.8281 18.375 46.8438
Q19.9219 44.875 22.5625 43.5469
Q25.2031 42.2344 28.6562 41.3594
Q32.125 40.4844 36.0312 39.5938
Q39.2031 38.875 42.3594 38.1094
Q45.5156 37.3594 48.3906 36.2969
Q51.2656 35.25 53.7812 33.8281
Q56.2969 32.4219 58.1562 30.375
Q60.0156 28.3281 61.0625 25.5312
Q62.1094 22.75 62.1094 19" id="LiberationSans-53"/>
      <path d="
M56.9844 0
L49.125 20.125
L17.7812 20.125
L9.85938 0
L0.203125 0
L28.2656 68.7969
L38.875 68.7969
L66.5 0
z

M37.5 50.0938
Q36.7188 52.0469 36 54.0469
Q35.2969 56.0625 34.7656 57.6875
Q34.2344 59.3281 33.8594 60.4219
Q33.5 61.5312 33.4531 61.7656
Q33.3438 61.5312 33 60.4062
Q32.6719 59.2812 32.1094 57.6094
Q31.5469 55.9531 30.8281 53.9531
Q30.125 51.9531 29.3906 50
L20.6094 27.3906
L46.3438 27.3906
z
" id="LiberationSans-41"/>
     </defs>
     <g style="fill:#262626;" transform="translate(305.5 85.9209375)scale(0.13 -0.13)">
      <use xlink:href="#LiberationSans-53"/>
      <use x="66.69921875" xlink:href="#LiberationSans-6f"/>
      <use x="122.314453125" xlink:href="#LiberationSans-75"/>
      <use x="177.9296875" xlink:href="#LiberationSans-74"/>
      <use x="205.712890625" xlink:href="#LiberationSans-68"/>
      <use x="261.328125" xlink:href="#LiberationSans-77"/>
      <use x="333.544921875" xlink:href="#LiberationSans-65"/>
      <use x="389.16015625" xlink:href="#LiberationSans-73"/>
      <use x="439.16015625" xlink:href="#LiberationSans-74"/>
      <use x="466.943359375" xlink:href="#LiberationSans-20"/>
      <use x="489.2265625" xlink:href="#LiberationSans-41"/>
      <use x="555.92578125" xlink:href="#LiberationSans-69"/>
      <use x="578.142578125" xlink:href="#LiberationSans-72"/>
      <use x="611.443359375" xlink:href="#LiberationSans-6c"/>
      <use x="633.66015625" xlink:href="#LiberationSans-69"/>
      <use x="655.876953125" xlink:href="#LiberationSans-6e"/>
      <use x="711.4921875" xlink:href="#LiberationSans-65"/>
      <use x="767.107421875" xlink:href="#LiberationSans-73"/>
      <use x="817.107421875" xlink:href="#LiberationSans-20"/>
      <use x="844.890625" xlink:href="#LiberationSans-43"/>
      <use x="917.107421875" xlink:href="#LiberationSans-6f"/>
      <use x="972.72265625" xlink:href="#LiberationSans-2e"/>
     </g>
    </g>
    <g id="line2d_38">
     <path d="
M269.1 99.9894
L295.1 99.9894" style="fill:none;stroke:#feb308;stroke-linecap:round;stroke-width:1.75;"/>
    </g>
    <g id="line2d_39"/>
    <g id="text_17">
     <!-- Delta Air Lines Inc. -->
     <defs>
      <path d="
M67.4375 35.1094
Q67.4375 26.5156 64.8438 19.9375
Q62.25 13.375 57.75 8.95312
Q53.2656 4.54688 47.1406 2.26562
Q41.0156 0 33.9375 0
L8.20312 0
L8.20312 68.7969
L30.9531 68.7969
Q38.9219 68.7969 45.625 66.8125
Q52.3438 64.8438 57.1719 60.7188
Q62.0156 56.5938 64.7188 50.2344
Q67.4375 43.8906 67.4375 35.1094
M58.0625 35.1094
Q58.0625 42.0938 56.0469 47.0469
Q54.0469 52 50.4375 55.1719
Q46.8281 58.3438 41.7969 59.8281
Q36.7656 61.3281 30.7656 61.3281
L17.5312 61.3281
L17.5312 7.46875
L32.8594 7.46875
Q38.2812 7.46875 42.8906 9.21875
Q47.5156 10.9844 50.875 14.4531
Q54.25 17.9219 56.1562 23.0938
Q58.0625 28.2656 58.0625 35.1094" id="LiberationSans-44"/>
      <path d="
M13.4219 26.6562
Q13.4219 22.125 14.0781 18.3125
Q14.75 14.5 16.3125 11.7344
Q17.875 8.98438 20.4375 7.46875
Q23 5.95312 26.7656 5.95312
Q31.4531 5.95312 34.5938 8.48438
Q37.75 11.0312 38.4844 16.3125
L47.3594 15.7188
Q46.9219 12.4531 45.4531 9.42188
Q44 6.39062 41.4844 4.09375
Q38.9688 1.8125 35.3438 0.40625
Q31.7344 -0.984375 27 -0.984375
Q20.7969 -0.984375 16.4531 1.10938
Q12.1094 3.21875 9.39062 6.90625
Q6.6875 10.5938 5.46875 15.5938
Q4.25 20.6094 4.25 26.4688
Q4.25 31.7812 5.125 35.8594
Q6 39.9375 7.59375 42.9844
Q9.1875 46.0469 11.3281 48.125
Q13.4844 50.2031 15.9844 51.4375
Q18.5 52.6875 21.2812 53.25
Q24.0781 53.8125 26.9062 53.8125
Q31.3438 53.8125 34.8125 52.5938
Q38.2812 51.375 40.7969 49.25
Q43.3125 47.125 44.875 44.2344
Q46.4375 41.3594 47.0781 38.0312
L38.0312 37.3594
Q37.3594 41.75 34.5625 44.3281
Q31.7812 46.9219 26.6562 46.9219
Q22.9062 46.9219 20.3906 45.6719
Q17.875 44.4375 16.3125 41.9219
Q14.75 39.4062 14.0781 35.5938
Q13.4219 31.7812 13.4219 26.6562" id="LiberationSans-63"/>
      <path d="
M8.20312 0
L8.20312 68.7969
L17.5312 68.7969
L17.5312 7.625
L52.2969 7.625
L52.2969 0
z
" id="LiberationSans-4c"/>
      <path d="
M9.23438 0
L9.23438 68.7969
L18.5625 68.7969
L18.5625 0
z
" id="LiberationSans-49"/>
     </defs>
     <g style="fill:#262626;" transform="translate(305.5 104.539375)scale(0.13 -0.13)">
      <use xlink:href="#LiberationSans-44"/>
      <use x="72.216796875" xlink:href="#LiberationSans-65"/>
      <use x="127.83203125" xlink:href="#LiberationSans-6c"/>
      <use x="150.048828125" xlink:href="#LiberationSans-74"/>
      <use x="177.83203125" xlink:href="#LiberationSans-61"/>
      <use x="233.447265625" xlink:href="#LiberationSans-20"/>
      <use x="255.73046875" xlink:href="#LiberationSans-41"/>
      <use x="322.4296875" xlink:href="#LiberationSans-69"/>
      <use x="344.646484375" xlink:href="#LiberationSans-72"/>
      <use x="377.947265625" xlink:href="#LiberationSans-20"/>
      <use x="405.73046875" xlink:href="#LiberationSans-4c"/>
      <use x="461.345703125" xlink:href="#LiberationSans-69"/>
      <use x="483.5625" xlink:href="#LiberationSans-6e"/>
      <use x="539.177734375" xlink:href="#LiberationSans-65"/>
      <use x="594.79296875" xlink:href="#LiberationSans-73"/>
      <use x="644.79296875" xlink:href="#LiberationSans-20"/>
      <use x="672.576171875" xlink:href="#LiberationSans-49"/>
      <use x="700.359375" xlink:href="#LiberationSans-6e"/>
      <use x="755.974609375" xlink:href="#LiberationSans-63"/>
      <use x="805.974609375" xlink:href="#LiberationSans-2e"/>
     </g>
    </g>
    <g id="line2d_40">
     <path d="
M269.1 118.608
L295.1 118.608" style="fill:none;stroke:#a5a502;stroke-linecap:round;stroke-width:1.75;"/>
    </g>
    <g id="line2d_41"/>
    <g id="text_18">
     <!-- American Airlines Inc. -->
     <g style="fill:#262626;" transform="translate(305.5 123.1578125)scale(0.13 -0.13)">
      <use xlink:href="#LiberationSans-41"/>
      <use x="66.69921875" xlink:href="#LiberationSans-6d"/>
      <use x="150.0" xlink:href="#LiberationSans-65"/>
      <use x="205.615234375" xlink:href="#LiberationSans-72"/>
      <use x="238.916015625" xlink:href="#LiberationSans-69"/>
      <use x="261.1328125" xlink:href="#LiberationSans-63"/>
      <use x="311.1328125" xlink:href="#LiberationSans-61"/>
      <use x="366.748046875" xlink:href="#LiberationSans-6e"/>
      <use x="422.36328125" xlink:href="#LiberationSans-20"/>
      <use x="444.646484375" xlink:href="#LiberationSans-41"/>
      <use x="511.345703125" xlink:href="#LiberationSans-69"/>
      <use x="533.5625" xlink:href="#LiberationSans-72"/>
      <use x="566.86328125" xlink:href="#LiberationSans-6c"/>
      <use x="589.080078125" xlink:href="#LiberationSans-69"/>
      <use x="611.296875" xlink:href="#LiberationSans-6e"/>
      <use x="666.912109375" xlink:href="#LiberationSans-65"/>
      <use x="722.52734375" xlink:href="#LiberationSans-73"/>
      <use x="772.52734375" xlink:href="#LiberationSans-20"/>
      <use x="800.310546875" xlink:href="#LiberationSans-49"/>
      <use x="828.09375" xlink:href="#LiberationSans-6e"/>
      <use x="883.708984375" xlink:href="#LiberationSans-63"/>
      <use x="933.708984375" xlink:href="#LiberationSans-2e"/>
     </g>
    </g>
    <g id="line2d_42">
     <path d="
M269.1 137.226
L295.1 137.226" style="fill:none;stroke:#825f87;stroke-linecap:round;stroke-width:1.75;"/>
    </g>
    <g id="line2d_43"/>
    <g id="text_19">
     <!-- US Airways Inc. -->
     <defs>
      <path d="
M35.6875 -0.984375
Q30.0312 -0.984375 24.9531 0.53125
Q19.875 2.04688 16.0312 5.25
Q12.2031 8.45312 9.95312 13.3594
Q7.71875 18.2656 7.71875 25
L7.71875 68.7969
L17.0469 68.7969
L17.0469 25.7812
Q17.0469 20.5625 18.4375 16.9219
Q19.8281 13.2812 22.3125 10.9844
Q24.8125 8.6875 28.2031 7.64062
Q31.5938 6.59375 35.6406 6.59375
Q39.6562 6.59375 43.2188 7.65625
Q46.7812 8.73438 49.4688 11.0781
Q52.1562 13.4219 53.6875 17.2031
Q55.2188 21 55.2188 26.4219
L55.2188 68.7969
L64.5 68.7969
L64.5 25.875
Q64.5 19 62.2344 13.9375
Q59.9688 8.89062 56.0625 5.5625
Q52.1562 2.25 46.9062 0.625
Q41.6562 -0.984375 35.6875 -0.984375" id="LiberationSans-55"/>
     </defs>
     <g style="fill:#262626;" transform="translate(305.5 141.77625)scale(0.13 -0.13)">
      <use xlink:href="#LiberationSans-55"/>
      <use x="72.216796875" xlink:href="#LiberationSans-53"/>
      <use x="138.916015625" xlink:href="#LiberationSans-20"/>
      <use x="161.19921875" xlink:href="#LiberationSans-41"/>
      <use x="227.8984375" xlink:href="#LiberationSans-69"/>
      <use x="250.115234375" xlink:href="#LiberationSans-72"/>
      <use x="283.416015625" xlink:href="#LiberationSans-77"/>
      <use x="355.6328125" xlink:href="#LiberationSans-61"/>
      <use x="411.248046875" xlink:href="#LiberationSans-79"/>
      <use x="461.248046875" xlink:href="#LiberationSans-73"/>
      <use x="511.248046875" xlink:href="#LiberationSans-20"/>
      <use x="539.03125" xlink:href="#LiberationSans-49"/>
      <use x="566.814453125" xlink:href="#LiberationSans-6e"/>
      <use x="622.4296875" xlink:href="#LiberationSans-63"/>
      <use x="672.4296875" xlink:href="#LiberationSans-2e"/>
     </g>
    </g>
    <g id="line2d_44">
     <path d="
M269.1 155.845
L295.1 155.845" style="fill:none;stroke:#653700;stroke-linecap:round;stroke-width:1.75;"/>
    </g>
    <g id="line2d_45"/>
    <g id="text_20">
     <!-- United Air Lines Inc. -->
     <g style="fill:#262626;" transform="translate(305.5 160.3946875)scale(0.13 -0.13)">
      <use xlink:href="#LiberationSans-55"/>
      <use x="72.216796875" xlink:href="#LiberationSans-6e"/>
      <use x="127.83203125" xlink:href="#LiberationSans-69"/>
      <use x="150.048828125" xlink:href="#LiberationSans-74"/>
      <use x="177.83203125" xlink:href="#LiberationSans-65"/>
      <use x="233.447265625" xlink:href="#LiberationSans-64"/>
      <use x="289.0625" xlink:href="#LiberationSans-20"/>
      <use x="311.345703125" xlink:href="#LiberationSans-41"/>
      <use x="378.044921875" xlink:href="#LiberationSans-69"/>
      <use x="400.26171875" xlink:href="#LiberationSans-72"/>
      <use x="433.5625" xlink:href="#LiberationSans-20"/>
      <use x="461.345703125" xlink:href="#LiberationSans-4c"/>
      <use x="516.9609375" xlink:href="#LiberationSans-69"/>
      <use x="539.177734375" xlink:href="#LiberationSans-6e"/>
      <use x="594.79296875" xlink:href="#LiberationSans-65"/>
      <use x="650.408203125" xlink:href="#LiberationSans-73"/>
      <use x="700.408203125" xlink:href="#LiberationSans-20"/>
      <use x="728.19140625" xlink:href="#LiberationSans-49"/>
      <use x="755.974609375" xlink:href="#LiberationSans-6e"/>
      <use x="811.58984375" xlink:href="#LiberationSans-63"/>
      <use x="861.58984375" xlink:href="#LiberationSans-2e"/>
     </g>
    </g>
    <g id="line2d_46">
     <path d="
M269.1 174.463
L295.1 174.463" style="fill:none;stroke:#ed0dd9;stroke-linecap:round;stroke-width:1.75;"/>
    </g>
    <g id="line2d_47"/>
    <g id="text_21">
     <!-- ATA Airlines d/b/a ATA -->
     <defs>
      <path d="
M35.1562 61.1875
L35.1562 0
L25.875 0
L25.875 61.1875
L2.25 61.1875
L2.25 68.7969
L58.7969 68.7969
L58.7969 61.1875
z
" id="LiberationSans-54"/>
      <path d="
M0 -0.984375
L20.0625 72.4688
L27.7812 72.4688
L7.90625 -0.984375
z
" id="LiberationSans-2f"/>
     </defs>
     <g style="fill:#262626;" transform="translate(305.5 179.013125)scale(0.13 -0.13)">
      <use xlink:href="#LiberationSans-41"/>
      <use x="59.32421875" xlink:href="#LiberationSans-54"/>
      <use x="113.033203125" xlink:href="#LiberationSans-41"/>
      <use x="174.232421875" xlink:href="#LiberationSans-20"/>
      <use x="196.515625" xlink:href="#LiberationSans-41"/>
      <use x="263.21484375" xlink:href="#LiberationSans-69"/>
      <use x="285.431640625" xlink:href="#LiberationSans-72"/>
      <use x="318.732421875" xlink:href="#LiberationSans-6c"/>
      <use x="340.94921875" xlink:href="#LiberationSans-69"/>
      <use x="363.166015625" xlink:href="#LiberationSans-6e"/>
      <use x="418.78125" xlink:href="#LiberationSans-65"/>
      <use x="474.396484375" xlink:href="#LiberationSans-73"/>
      <use x="524.396484375" xlink:href="#LiberationSans-20"/>
      <use x="552.1796875" xlink:href="#LiberationSans-64"/>
      <use x="607.794921875" xlink:href="#LiberationSans-2f"/>
      <use x="635.578125" xlink:href="#LiberationSans-62"/>
      <use x="691.193359375" xlink:href="#LiberationSans-2f"/>
      <use x="718.9765625" xlink:href="#LiberationSans-61"/>
      <use x="774.591796875" xlink:href="#LiberationSans-20"/>
      <use x="796.875" xlink:href="#LiberationSans-41"/>
      <use x="856.19921875" xlink:href="#LiberationSans-54"/>
      <use x="909.908203125" xlink:href="#LiberationSans-41"/>
     </g>
    </g>
    <g id="line2d_48">
     <path d="
M269.1 193.082
L295.1 193.082" style="fill:none;stroke:#ddd618;stroke-linecap:round;stroke-width:1.75;"/>
    </g>
    <g id="line2d_49"/>
    <g id="text_22">
     <!-- AirTran Airways Corporation -->
     <defs>
      <path d="
M51.4219 26.6562
Q51.4219 20.6562 50.4375 15.5781
Q49.4688 10.5 47.1875 6.82812
Q44.9219 3.17188 41.1875 1.09375
Q37.4531 -0.984375 31.9844 -0.984375
Q26.3125 -0.984375 22.0625 1.17188
Q17.8281 3.32812 15.5781 8.20312
L15.3281 8.20312
Q15.375 8.10938 15.4062 7.32812
Q15.4375 6.54688 15.4531 5.375
Q15.4844 4.20312 15.5 2.75
Q15.5312 1.3125 15.5312 -0.09375
L15.5312 -20.75
L6.73438 -20.75
L6.73438 42.0469
Q6.73438 43.9531 6.70312 45.7031
Q6.6875 47.4688 6.64062 48.9062
Q6.59375 50.3438 6.54688 51.3594
Q6.5 52.3906 6.45312 52.8281
L14.9375 52.8281
Q14.9844 52.6875 15.0625 51.7969
Q15.1406 50.9219 15.2031 49.6719
Q15.2812 48.4375 15.3594 47.0156
Q15.4375 45.6094 15.4375 44.3438
L15.625 44.3438
Q16.8438 46.875 18.4062 48.6562
Q19.9688 50.4375 21.9688 51.5781
Q23.9688 52.7344 26.4375 53.25
Q28.9062 53.7656 31.9844 53.7656
Q37.4531 53.7656 41.1875 51.8125
Q44.9219 49.8594 47.1875 46.3125
Q49.4688 42.7812 50.4375 37.7656
Q51.4219 32.7656 51.4219 26.6562
M42.1875 26.4688
Q42.1875 31.3438 41.5938 35.1562
Q41.0156 38.9688 39.5781 41.5938
Q38.1406 44.2344 35.7344 45.5938
Q33.3438 46.9688 29.7344 46.9688
Q26.8125 46.9688 24.2188 46.1406
Q21.625 45.3125 19.7031 42.9688
Q17.7812 40.625 16.6562 36.5
Q15.5312 32.375 15.5312 25.7812
Q15.5312 20.1719 16.4531 16.2812
Q17.3906 12.4062 19.1719 10.0156
Q20.9531 7.625 23.5781 6.5625
Q26.2188 5.51562 29.6406 5.51562
Q33.2969 5.51562 35.7188 6.92188
Q38.1406 8.34375 39.5781 11.0312
Q41.0156 13.7188 41.5938 17.5938
Q42.1875 21.4844 42.1875 26.4688" id="LiberationSans-70"/>
     </defs>
     <g style="fill:#262626;" transform="translate(305.5 197.6315625)scale(0.13 -0.13)">
      <use xlink:href="#LiberationSans-41"/>
      <use x="66.69921875" xlink:href="#LiberationSans-69"/>
      <use x="88.916015625" xlink:href="#LiberationSans-72"/>
      <use x="122.216796875" xlink:href="#LiberationSans-54"/>
      <use x="179.55078125" xlink:href="#LiberationSans-72"/>
      <use x="212.8515625" xlink:href="#LiberationSans-61"/>
      <use x="268.466796875" xlink:href="#LiberationSans-6e"/>
      <use x="324.08203125" xlink:href="#LiberationSans-20"/>
      <use x="346.365234375" xlink:href="#LiberationSans-41"/>
      <use x="413.064453125" xlink:href="#LiberationSans-69"/>
      <use x="435.28125" xlink:href="#LiberationSans-72"/>
      <use x="468.58203125" xlink:href="#LiberationSans-77"/>
      <use x="540.798828125" xlink:href="#LiberationSans-61"/>
      <use x="596.4140625" xlink:href="#LiberationSans-79"/>
      <use x="646.4140625" xlink:href="#LiberationSans-73"/>
      <use x="696.4140625" xlink:href="#LiberationSans-20"/>
      <use x="724.197265625" xlink:href="#LiberationSans-43"/>
      <use x="796.4140625" xlink:href="#LiberationSans-6f"/>
      <use x="852.029296875" xlink:href="#LiberationSans-72"/>
      <use x="885.330078125" xlink:href="#LiberationSans-70"/>
      <use x="940.9453125" xlink:href="#LiberationSans-6f"/>
      <use x="996.560546875" xlink:href="#LiberationSans-72"/>
      <use x="1029.86132812" xlink:href="#LiberationSans-61"/>
      <use x="1085.4765625" xlink:href="#LiberationSans-74"/>
      <use x="1113.25976562" xlink:href="#LiberationSans-69"/>
      <use x="1135.4765625" xlink:href="#LiberationSans-6f"/>
      <use x="1191.09179688" xlink:href="#LiberationSans-6e"/>
     </g>
    </g>
    <g id="line2d_50">
     <path d="
M269.1 211.7
L295.1 211.7" style="fill:none;stroke:#9ffeb0;stroke-linecap:round;stroke-width:1.75;"/>
    </g>
    <g id="line2d_51"/>
    <g id="text_23">
     <!-- Northwest Airlines Inc. -->
     <defs>
      <path d="
M52.8281 0
L16.0156 58.5938
Q16.1094 56.2031 16.2656 53.8594
Q16.3594 51.8594 16.4219 49.625
Q16.5 47.4062 16.5 45.7031
L16.5 0
L8.20312 0
L8.20312 68.7969
L19.0469 68.7969
L56.25 9.8125
Q56.1094 12.2031 55.9531 14.5938
Q55.8594 16.6562 55.7656 19.0625
Q55.6719 21.4844 55.6719 23.6875
L55.6719 68.7969
L64.0625 68.7969
L64.0625 0
z
" id="LiberationSans-4e"/>
     </defs>
     <g style="fill:#262626;" transform="translate(305.5 216.25)scale(0.13 -0.13)">
      <use xlink:href="#LiberationSans-4e"/>
      <use x="72.216796875" xlink:href="#LiberationSans-6f"/>
      <use x="127.83203125" xlink:href="#LiberationSans-72"/>
      <use x="161.1328125" xlink:href="#LiberationSans-74"/>
      <use x="188.916015625" xlink:href="#LiberationSans-68"/>
      <use x="244.53125" xlink:href="#LiberationSans-77"/>
      <use x="316.748046875" xlink:href="#LiberationSans-65"/>
      <use x="372.36328125" xlink:href="#LiberationSans-73"/>
      <use x="422.36328125" xlink:href="#LiberationSans-74"/>
      <use x="450.146484375" xlink:href="#LiberationSans-20"/>
      <use x="472.4296875" xlink:href="#LiberationSans-41"/>
      <use x="539.12890625" xlink:href="#LiberationSans-69"/>
      <use x="561.345703125" xlink:href="#LiberationSans-72"/>
      <use x="594.646484375" xlink:href="#LiberationSans-6c"/>
      <use x="616.86328125" xlink:href="#LiberationSans-69"/>
      <use x="639.080078125" xlink:href="#LiberationSans-6e"/>
      <use x="694.6953125" xlink:href="#LiberationSans-65"/>
      <use x="750.310546875" xlink:href="#LiberationSans-73"/>
      <use x="800.310546875" xlink:href="#LiberationSans-20"/>
      <use x="828.09375" xlink:href="#LiberationSans-49"/>
      <use x="855.876953125" xlink:href="#LiberationSans-6e"/>
      <use x="911.4921875" xlink:href="#LiberationSans-63"/>
      <use x="961.4921875" xlink:href="#LiberationSans-2e"/>
     </g>
    </g>
    <g id="line2d_52">
     <path d="
M269.1 230.318
L295.1 230.318" style="fill:none;stroke:#c79fef;stroke-linecap:round;stroke-width:1.75;"/>
    </g>
    <g id="line2d_53"/>
    <g id="text_24">
     <!-- America West Airlines Inc. -->
     <defs>
      <path d="
M73.7812 0
L62.6406 0
L50.7344 43.7031
Q50.2031 45.5625 49.5781 48.0938
Q48.9688 50.6406 48.4844 52.9375
Q47.9062 55.6094 47.3125 58.4062
Q46.6875 55.5625 46.0938 52.875
Q45.5625 50.5312 44.9688 48.0469
Q44.3906 45.5625 43.8438 43.7031
L31.8438 0
L20.7031 0
L0.4375 68.7969
L10.1562 68.7969
L22.5156 25.0938
Q23.3438 22.0156 24.0938 18.9844
Q24.8594 15.9688 25.3906 13.5781
Q26.0312 10.75 26.5625 8.20312
Q27.2969 11.5781 28.0781 14.8438
Q28.4219 16.2188 28.7656 17.7188
Q29.1094 19.2344 29.4688 20.7031
Q29.8281 22.1719 30.1875 23.5156
Q30.5625 24.8594 30.8594 25.9844
L42.8281 68.7969
L51.7656 68.7969
L63.7188 25.9844
Q64.0156 24.8594 64.375 23.5156
Q64.75 22.1719 65.1094 20.7188
Q65.4844 19.2812 65.8125 17.7656
Q66.1562 16.2656 66.5 14.8906
Q67.2812 11.625 68.0156 8.20312
Q68.0625 8.20312 68.4531 9.89062
Q68.8438 11.5781 69.4219 14.1094
Q70.0156 16.6562 70.7188 19.6094
Q71.4375 22.5625 72.1719 25.0938
L84.3281 68.7969
L94.0469 68.7969
z
" id="LiberationSans-57"/>
     </defs>
     <g style="fill:#262626;" transform="translate(305.5 234.8684375)scale(0.13 -0.13)">
      <use xlink:href="#LiberationSans-41"/>
      <use x="66.69921875" xlink:href="#LiberationSans-6d"/>
      <use x="150.0" xlink:href="#LiberationSans-65"/>
      <use x="205.615234375" xlink:href="#LiberationSans-72"/>
      <use x="238.916015625" xlink:href="#LiberationSans-69"/>
      <use x="261.1328125" xlink:href="#LiberationSans-63"/>
      <use x="311.1328125" xlink:href="#LiberationSans-61"/>
      <use x="366.748046875" xlink:href="#LiberationSans-20"/>
      <use x="394.53125" xlink:href="#LiberationSans-57"/>
      <use x="487.166015625" xlink:href="#LiberationSans-65"/>
      <use x="542.78125" xlink:href="#LiberationSans-73"/>
      <use x="592.78125" xlink:href="#LiberationSans-74"/>
      <use x="620.564453125" xlink:href="#LiberationSans-20"/>
      <use x="642.84765625" xlink:href="#LiberationSans-41"/>
      <use x="709.546875" xlink:href="#LiberationSans-69"/>
      <use x="731.763671875" xlink:href="#LiberationSans-72"/>
      <use x="765.064453125" xlink:href="#LiberationSans-6c"/>
      <use x="787.28125" xlink:href="#LiberationSans-69"/>
      <use x="809.498046875" xlink:href="#LiberationSans-6e"/>
      <use x="865.11328125" xlink:href="#LiberationSans-65"/>
      <use x="920.728515625" xlink:href="#LiberationSans-73"/>
      <use x="970.728515625" xlink:href="#LiberationSans-20"/>
      <use x="998.51171875" xlink:href="#LiberationSans-49"/>
      <use x="1026.29492188" xlink:href="#LiberationSans-6e"/>
      <use x="1081.91015625" xlink:href="#LiberationSans-63"/>
      <use x="1131.91015625" xlink:href="#LiberationSans-2e"/>
     </g>
    </g>
    <g id="line2d_54">
     <path d="
M269.1 248.937
L295.1 248.937" style="fill:none;stroke:#155084;stroke-linecap:round;stroke-width:1.75;"/>
    </g>
    <g id="line2d_55"/>
    <g id="text_25">
     <!-- Continental Air Lines Inc. -->
     <g style="fill:#262626;" transform="translate(305.5 253.486875)scale(0.13 -0.13)">
      <use xlink:href="#LiberationSans-43"/>
      <use x="72.216796875" xlink:href="#LiberationSans-6f"/>
      <use x="127.83203125" xlink:href="#LiberationSans-6e"/>
      <use x="183.447265625" xlink:href="#LiberationSans-74"/>
      <use x="211.23046875" xlink:href="#LiberationSans-69"/>
      <use x="233.447265625" xlink:href="#LiberationSans-6e"/>
      <use x="289.0625" xlink:href="#LiberationSans-65"/>
      <use x="344.677734375" xlink:href="#LiberationSans-6e"/>
      <use x="400.29296875" xlink:href="#LiberationSans-74"/>
      <use x="428.076171875" xlink:href="#LiberationSans-61"/>
      <use x="483.69140625" xlink:href="#LiberationSans-6c"/>
      <use x="505.908203125" xlink:href="#LiberationSans-20"/>
      <use x="528.19140625" xlink:href="#LiberationSans-41"/>
      <use x="594.890625" xlink:href="#LiberationSans-69"/>
      <use x="617.107421875" xlink:href="#LiberationSans-72"/>
      <use x="650.408203125" xlink:href="#LiberationSans-20"/>
      <use x="678.19140625" xlink:href="#LiberationSans-4c"/>
      <use x="733.806640625" xlink:href="#LiberationSans-69"/>
      <use x="756.0234375" xlink:href="#LiberationSans-6e"/>
      <use x="811.638671875" xlink:href="#LiberationSans-65"/>
      <use x="867.25390625" xlink:href="#LiberationSans-73"/>
      <use x="917.25390625" xlink:href="#LiberationSans-20"/>
      <use x="945.037109375" xlink:href="#LiberationSans-49"/>
      <use x="972.8203125" xlink:href="#LiberationSans-6e"/>
      <use x="1028.43554688" xlink:href="#LiberationSans-63"/>
      <use x="1078.43554688" xlink:href="#LiberationSans-2e"/>
     </g>
    </g>
    <g id="line2d_56">
     <path d="
M269.1 267.555
L295.1 267.555" style="fill:none;stroke:#d8dcd6;stroke-linecap:round;stroke-width:1.75;"/>
    </g>
    <g id="line2d_57"/>
    <g id="text_26">
     <!-- Other -->
     <defs>
      <path d="
M73 34.7188
Q73 26.6562 70.6719 20.0625
Q68.3594 13.4844 63.9688 8.79688
Q59.5781 4.10938 53.2188 1.5625
Q46.875 -0.984375 38.8125 -0.984375
Q30.3281 -0.984375 23.9219 1.67188
Q17.5312 4.34375 13.2812 9.10938
Q9.03125 13.875 6.875 20.4062
Q4.73438 26.9531 4.73438 34.7188
Q4.73438 42.7812 6.98438 49.2656
Q9.23438 55.7656 13.5781 60.3281
Q17.9219 64.8906 24.2969 67.3594
Q30.6719 69.8281 38.9219 69.8281
Q47.125 69.8281 53.4844 67.3281
Q59.8594 64.8438 64.1719 60.25
Q68.5 55.6719 70.75 49.1719
Q73 42.6719 73 34.7188
M63.4844 34.7188
Q63.4844 40.9219 61.8906 46
Q60.2969 51.0781 57.2031 54.6875
Q54.1094 58.2969 49.5156 60.25
Q44.9219 62.2031 38.9219 62.2031
Q32.7656 62.2031 28.125 60.25
Q23.4844 58.2969 20.375 54.6875
Q17.2812 51.0781 15.7344 46
Q14.2031 40.9219 14.2031 34.7188
Q14.2031 28.5156 15.7969 23.3594
Q17.3906 18.2188 20.4844 14.4844
Q23.5781 10.75 28.1875 8.67188
Q32.8125 6.59375 38.8125 6.59375
Q45.2656 6.59375 49.9219 8.6875
Q54.5938 10.7969 57.5938 14.5312
Q60.5938 18.2656 62.0312 23.4375
Q63.4844 28.6094 63.4844 34.7188" id="LiberationSans-4f"/>
     </defs>
     <g style="fill:#262626;" transform="translate(305.5 272.1053125)scale(0.13 -0.13)">
      <use xlink:href="#LiberationSans-4f"/>
      <use x="77.783203125" xlink:href="#LiberationSans-74"/>
      <use x="105.56640625" xlink:href="#LiberationSans-68"/>
      <use x="161.181640625" xlink:href="#LiberationSans-65"/>
      <use x="216.796875" xlink:href="#LiberationSans-72"/>
     </g>
    </g>
   </g>
  </g>
 </g>
 <defs>
  <clipPath id="p0891b91379">
   <rect height="502.2" width="558.0" x="90.0" y="64.8"/>
  </clipPath>
 </defs>
</svg>
